<svg width="411" height="41" viewBox="0 0 411 41" fill="none" xmlns="http://www.w3.org/2000/svg">
<path d="M41.868 35.14H38.22L37.548 37H36.396L39.42 28.684H40.68L43.692 37H42.54L41.868 35.14ZM41.556 34.252L40.044 30.028L38.532 34.252H41.556ZM44.6019 33.688C44.6019 33.016 44.7379 32.428 45.0099 31.924C45.2819 31.412 45.6539 31.016 46.1259 30.736C46.6059 30.456 47.1419 30.316 47.7339 30.316C48.2459 30.316 48.7219 30.436 49.1619 30.676C49.6019 30.908 49.9379 31.216 50.1699 31.6V28.12H51.2739V37H50.1699V35.764C49.9539 36.156 49.6339 36.48 49.2099 36.736C48.7859 36.984 48.2899 37.108 47.7219 37.108C47.1379 37.108 46.6059 36.964 46.1259 36.676C45.6539 36.388 45.2819 35.984 45.0099 35.464C44.7379 34.944 44.6019 34.352 44.6019 33.688ZM50.1699 33.7C50.1699 33.204 50.0699 32.772 49.8699 32.404C49.6699 32.036 49.3979 31.756 49.0539 31.564C48.7179 31.364 48.3459 31.264 47.9379 31.264C47.5299 31.264 47.1579 31.36 46.8219 31.552C46.4859 31.744 46.2179 32.024 46.0179 32.392C45.8179 32.76 45.7179 33.192 45.7179 33.688C45.7179 34.192 45.8179 34.632 46.0179 35.008C46.2179 35.376 46.4859 35.66 46.8219 35.86C47.1579 36.052 47.5299 36.148 47.9379 36.148C48.3459 36.148 48.7179 36.052 49.0539 35.86C49.3979 35.66 49.6699 35.376 49.8699 35.008C50.0699 34.632 50.1699 34.196 50.1699 33.7ZM61.0273 30.304C61.5393 30.304 61.9953 30.412 62.3953 30.628C62.7953 30.836 63.1113 31.152 63.3433 31.576C63.5753 32 63.6913 32.516 63.6913 33.124V37H62.6113V33.28C62.6113 32.624 62.4473 32.124 62.1193 31.78C61.7993 31.428 61.3633 31.252 60.8113 31.252C60.2433 31.252 59.7913 31.436 59.4553 31.804C59.1193 32.164 58.9513 32.688 58.9513 33.376V37H57.8713V33.28C57.8713 32.624 57.7073 32.124 57.3793 31.78C57.0593 31.428 56.6233 31.252 56.0713 31.252C55.5033 31.252 55.0513 31.436 54.7153 31.804C54.3793 32.164 54.2113 32.688 54.2113 33.376V37H53.1193V30.424H54.2113V31.372C54.4273 31.028 54.7153 30.764 55.0753 30.58C55.4433 30.396 55.8473 30.304 56.2873 30.304C56.8393 30.304 57.3273 30.428 57.7513 30.676C58.1753 30.924 58.4913 31.288 58.6993 31.768C58.8833 31.304 59.1873 30.944 59.6113 30.688C60.0353 30.432 60.5073 30.304 61.0273 30.304ZM66.0466 29.356C65.8386 29.356 65.6626 29.284 65.5186 29.14C65.3746 28.996 65.3026 28.82 65.3026 28.612C65.3026 28.404 65.3746 28.228 65.5186 28.084C65.6626 27.94 65.8386 27.868 66.0466 27.868C66.2466 27.868 66.4146 27.94 66.5506 28.084C66.6946 28.228 66.7666 28.404 66.7666 28.612C66.7666 28.82 66.6946 28.996 66.5506 29.14C66.4146 29.284 66.2466 29.356 66.0466 29.356ZM66.5746 30.424V37H65.4826V30.424H66.5746ZM71.6397 30.304C72.4397 30.304 73.0877 30.548 73.5837 31.036C74.0797 31.516 74.3277 32.212 74.3277 33.124V37H73.2477V33.28C73.2477 32.624 73.0837 32.124 72.7557 31.78C72.4277 31.428 71.9797 31.252 71.4117 31.252C70.8357 31.252 70.3757 31.432 70.0317 31.792C69.6957 32.152 69.5277 32.676 69.5277 33.364V37H68.4357V30.424H69.5277V31.36C69.7437 31.024 70.0357 30.764 70.4037 30.58C70.7797 30.396 71.1917 30.304 71.6397 30.304ZM76.6755 29.356C76.4675 29.356 76.2915 29.284 76.1475 29.14C76.0035 28.996 75.9315 28.82 75.9315 28.612C75.9315 28.404 76.0035 28.228 76.1475 28.084C76.2915 27.94 76.4675 27.868 76.6755 27.868C76.8755 27.868 77.0435 27.94 77.1795 28.084C77.3235 28.228 77.3955 28.404 77.3955 28.612C77.3955 28.82 77.3235 28.996 77.1795 29.14C77.0435 29.284 76.8755 29.356 76.6755 29.356ZM77.2035 30.424V37H76.1115V30.424H77.2035ZM81.3926 37.108C80.8886 37.108 80.4366 37.024 80.0366 36.856C79.6366 36.68 79.3206 36.44 79.0886 36.136C78.8566 35.824 78.7286 35.468 78.7046 35.068H79.8326C79.8646 35.396 80.0166 35.664 80.2886 35.872C80.5686 36.08 80.9326 36.184 81.3806 36.184C81.7966 36.184 82.1246 36.092 82.3646 35.908C82.6046 35.724 82.7246 35.492 82.7246 35.212C82.7246 34.924 82.5966 34.712 82.3406 34.576C82.0846 34.432 81.6886 34.292 81.1526 34.156C80.6646 34.028 80.2646 33.9 79.9526 33.772C79.6486 33.636 79.3846 33.44 79.1606 33.184C78.9446 32.92 78.8366 32.576 78.8366 32.152C78.8366 31.816 78.9366 31.508 79.1366 31.228C79.3366 30.948 79.6206 30.728 79.9886 30.568C80.3566 30.4 80.7766 30.316 81.2486 30.316C81.9766 30.316 82.5646 30.5 83.0126 30.868C83.4606 31.236 83.7006 31.74 83.7326 32.38H82.6406C82.6166 32.036 82.4766 31.76 82.2206 31.552C81.9726 31.344 81.6366 31.24 81.2126 31.24C80.8206 31.24 80.5086 31.324 80.2766 31.492C80.0446 31.66 79.9286 31.88 79.9286 32.152C79.9286 32.368 79.9966 32.548 80.1326 32.692C80.2766 32.828 80.4526 32.94 80.6606 33.028C80.8766 33.108 81.1726 33.2 81.5486 33.304C82.0206 33.432 82.4046 33.56 82.7006 33.688C82.9966 33.808 83.2486 33.992 83.4566 34.24C83.6726 34.488 83.7846 34.812 83.7926 35.212C83.7926 35.572 83.6926 35.896 83.4926 36.184C83.2926 36.472 83.0086 36.7 82.6406 36.868C82.2806 37.028 81.8646 37.108 81.3926 37.108ZM86.6662 31.324V35.2C86.6662 35.52 86.7342 35.748 86.8702 35.884C87.0062 36.012 87.2422 36.076 87.5782 36.076H88.3822V37H87.3982C86.7902 37 86.3342 36.86 86.0302 36.58C85.7262 36.3 85.5742 35.84 85.5742 35.2V31.324H84.7222V30.424H85.5742V28.768H86.6662V30.424H88.3822V31.324H86.6662ZM90.7973 31.492C90.9893 31.116 91.2613 30.824 91.6133 30.616C91.9733 30.408 92.4093 30.304 92.9213 30.304V31.432H92.6333C91.4093 31.432 90.7973 32.096 90.7973 33.424V37H89.7053V30.424H90.7973V31.492ZM93.7738 33.688C93.7738 33.016 93.9098 32.428 94.1818 31.924C94.4538 31.412 94.8258 31.016 95.2978 30.736C95.7778 30.456 96.3098 30.316 96.8938 30.316C97.4698 30.316 97.9698 30.44 98.3938 30.688C98.8178 30.936 99.1338 31.248 99.3418 31.624V30.424H100.446V37H99.3418V35.776C99.1258 36.16 98.8018 36.48 98.3698 36.736C97.9458 36.984 97.4498 37.108 96.8818 37.108C96.2978 37.108 95.7698 36.964 95.2978 36.676C94.8258 36.388 94.4538 35.984 94.1818 35.464C93.9098 34.944 93.7738 34.352 93.7738 33.688ZM99.3418 33.7C99.3418 33.204 99.2418 32.772 99.0418 32.404C98.8418 32.036 98.5698 31.756 98.2258 31.564C97.8898 31.364 97.5178 31.264 97.1098 31.264C96.7018 31.264 96.3298 31.36 95.9938 31.552C95.6578 31.744 95.3898 32.024 95.1898 32.392C94.9898 32.76 94.8898 33.192 94.8898 33.688C94.8898 34.192 94.9898 34.632 95.1898 35.008C95.3898 35.376 95.6578 35.66 95.9938 35.86C96.3298 36.052 96.7018 36.148 97.1098 36.148C97.5178 36.148 97.8898 36.052 98.2258 35.86C98.5698 35.66 98.8418 35.376 99.0418 35.008C99.2418 34.632 99.3418 34.196 99.3418 33.7ZM103.419 35.488L102.075 38.716H101.343L102.219 35.488H103.419ZM115.777 30.304C116.289 30.304 116.745 30.412 117.145 30.628C117.545 30.836 117.861 31.152 118.093 31.576C118.325 32 118.441 32.516 118.441 33.124V37H117.361V33.28C117.361 32.624 117.197 32.124 116.869 31.78C116.549 31.428 116.113 31.252 115.561 31.252C114.993 31.252 114.541 31.436 114.205 31.804C113.869 32.164 113.701 32.688 113.701 33.376V37H112.621V33.28C112.621 32.624 112.457 32.124 112.129 31.78C111.809 31.428 111.373 31.252 110.821 31.252C110.253 31.252 109.801 31.436 109.465 31.804C109.129 32.164 108.961 32.688 108.961 33.376V37H107.869V30.424H108.961V31.372C109.177 31.028 109.465 30.764 109.825 30.58C110.193 30.396 110.597 30.304 111.037 30.304C111.589 30.304 112.077 30.428 112.501 30.676C112.925 30.924 113.241 31.288 113.449 31.768C113.633 31.304 113.937 30.944 114.361 30.688C114.785 30.432 115.257 30.304 115.777 30.304ZM123.101 37.108C122.485 37.108 121.925 36.968 121.421 36.688C120.925 36.408 120.533 36.012 120.245 35.5C119.965 34.98 119.825 34.38 119.825 33.7C119.825 33.028 119.969 32.436 120.257 31.924C120.553 31.404 120.953 31.008 121.457 30.736C121.961 30.456 122.525 30.316 123.149 30.316C123.773 30.316 124.337 30.456 124.841 30.736C125.345 31.008 125.741 31.4 126.029 31.912C126.325 32.424 126.473 33.02 126.473 33.7C126.473 34.38 126.321 34.98 126.017 35.5C125.721 36.012 125.317 36.408 124.805 36.688C124.293 36.968 123.725 37.108 123.101 37.108ZM123.101 36.148C123.493 36.148 123.861 36.056 124.205 35.872C124.549 35.688 124.825 35.412 125.033 35.044C125.249 34.676 125.357 34.228 125.357 33.7C125.357 33.172 125.253 32.724 125.045 32.356C124.837 31.988 124.565 31.716 124.229 31.54C123.893 31.356 123.529 31.264 123.137 31.264C122.737 31.264 122.369 31.356 122.033 31.54C121.705 31.716 121.441 31.988 121.241 32.356C121.041 32.724 120.941 33.172 120.941 33.7C120.941 34.236 121.037 34.688 121.229 35.056C121.429 35.424 121.693 35.7 122.021 35.884C122.349 36.06 122.709 36.148 123.101 36.148ZM131.112 30.304C131.912 30.304 132.56 30.548 133.056 31.036C133.552 31.516 133.8 32.212 133.8 33.124V37H132.72V33.28C132.72 32.624 132.556 32.124 132.228 31.78C131.9 31.428 131.452 31.252 130.884 31.252C130.308 31.252 129.848 31.432 129.504 31.792C129.168 32.152 129 32.676 129 33.364V37H127.908V30.424H129V31.36C129.216 31.024 129.508 30.764 129.876 30.58C130.252 30.396 130.664 30.304 131.112 30.304ZM136.148 29.356C135.94 29.356 135.764 29.284 135.62 29.14C135.476 28.996 135.404 28.82 135.404 28.612C135.404 28.404 135.476 28.228 135.62 28.084C135.764 27.94 135.94 27.868 136.148 27.868C136.348 27.868 136.516 27.94 136.652 28.084C136.796 28.228 136.868 28.404 136.868 28.612C136.868 28.82 136.796 28.996 136.652 29.14C136.516 29.284 136.348 29.356 136.148 29.356ZM136.676 30.424V37H135.584V30.424H136.676ZM139.869 31.324V35.2C139.869 35.52 139.937 35.748 140.073 35.884C140.209 36.012 140.445 36.076 140.781 36.076H141.585V37H140.601C139.993 37 139.537 36.86 139.233 36.58C138.929 36.3 138.777 35.84 138.777 35.2V31.324H137.925V30.424H138.777V28.768H139.869V30.424H141.585V31.324H139.869ZM145.776 37.108C145.16 37.108 144.6 36.968 144.096 36.688C143.6 36.408 143.208 36.012 142.92 35.5C142.64 34.98 142.5 34.38 142.5 33.7C142.5 33.028 142.644 32.436 142.932 31.924C143.228 31.404 143.628 31.008 144.132 30.736C144.636 30.456 145.2 30.316 145.824 30.316C146.448 30.316 147.012 30.456 147.516 30.736C148.02 31.008 148.416 31.4 148.704 31.912C149 32.424 149.148 33.02 149.148 33.7C149.148 34.38 148.996 34.98 148.692 35.5C148.396 36.012 147.992 36.408 147.48 36.688C146.968 36.968 146.4 37.108 145.776 37.108ZM145.776 36.148C146.168 36.148 146.536 36.056 146.88 35.872C147.224 35.688 147.5 35.412 147.708 35.044C147.924 34.676 148.032 34.228 148.032 33.7C148.032 33.172 147.928 32.724 147.72 32.356C147.512 31.988 147.24 31.716 146.904 31.54C146.568 31.356 146.204 31.264 145.812 31.264C145.412 31.264 145.044 31.356 144.708 31.54C144.38 31.716 144.116 31.988 143.916 32.356C143.716 32.724 143.616 33.172 143.616 33.7C143.616 34.236 143.712 34.688 143.904 35.056C144.104 35.424 144.368 35.7 144.696 35.884C145.024 36.06 145.384 36.148 145.776 36.148ZM151.676 31.492C151.868 31.116 152.14 30.824 152.492 30.616C152.852 30.408 153.288 30.304 153.8 30.304V31.432H153.512C152.288 31.432 151.676 32.096 151.676 33.424V37H150.584V30.424H151.676V31.492ZM161.061 33.46C161.061 33.668 161.049 33.888 161.025 34.12H155.769C155.809 34.768 156.029 35.276 156.429 35.644C156.837 36.004 157.329 36.184 157.905 36.184C158.377 36.184 158.769 36.076 159.081 35.86C159.401 35.636 159.625 35.34 159.753 34.972H160.929C160.753 35.604 160.401 36.12 159.873 36.52C159.345 36.912 158.689 37.108 157.905 37.108C157.281 37.108 156.721 36.968 156.225 36.688C155.737 36.408 155.353 36.012 155.073 35.5C154.793 34.98 154.653 34.38 154.653 33.7C154.653 33.02 154.789 32.424 155.061 31.912C155.333 31.4 155.713 31.008 156.201 30.736C156.697 30.456 157.265 30.316 157.905 30.316C158.529 30.316 159.081 30.452 159.561 30.724C160.041 30.996 160.409 31.372 160.665 31.852C160.929 32.324 161.061 32.86 161.061 33.46ZM159.933 33.232C159.933 32.816 159.841 32.46 159.657 32.164C159.473 31.86 159.221 31.632 158.901 31.48C158.589 31.32 158.241 31.24 157.857 31.24C157.305 31.24 156.833 31.416 156.441 31.768C156.057 32.12 155.837 32.608 155.781 33.232H159.933ZM162.094 33.688C162.094 33.016 162.23 32.428 162.502 31.924C162.774 31.412 163.146 31.016 163.618 30.736C164.098 30.456 164.63 30.316 165.214 30.316C165.79 30.316 166.29 30.44 166.714 30.688C167.138 30.936 167.454 31.248 167.662 31.624V30.424H168.766V37H167.662V35.776C167.446 36.16 167.122 36.48 166.69 36.736C166.266 36.984 165.77 37.108 165.202 37.108C164.618 37.108 164.09 36.964 163.618 36.676C163.146 36.388 162.774 35.984 162.502 35.464C162.23 34.944 162.094 34.352 162.094 33.688ZM167.662 33.7C167.662 33.204 167.562 32.772 167.362 32.404C167.162 32.036 166.89 31.756 166.546 31.564C166.21 31.364 165.838 31.264 165.43 31.264C165.022 31.264 164.65 31.36 164.314 31.552C163.978 31.744 163.71 32.024 163.51 32.392C163.31 32.76 163.21 33.192 163.21 33.688C163.21 34.192 163.31 34.632 163.51 35.008C163.71 35.376 163.978 35.66 164.314 35.86C164.65 36.052 165.022 36.148 165.43 36.148C165.838 36.148 166.21 36.052 166.546 35.86C166.89 35.66 167.162 35.376 167.362 35.008C167.562 34.632 167.662 34.196 167.662 33.7ZM181.719 30.304C182.231 30.304 182.687 30.412 183.087 30.628C183.487 30.836 183.803 31.152 184.035 31.576C184.267 32 184.383 32.516 184.383 33.124V37H183.303V33.28C183.303 32.624 183.139 32.124 182.811 31.78C182.491 31.428 182.055 31.252 181.503 31.252C180.935 31.252 180.483 31.436 180.147 31.804C179.811 32.164 179.643 32.688 179.643 33.376V37H178.563V33.28C178.563 32.624 178.399 32.124 178.071 31.78C177.751 31.428 177.315 31.252 176.763 31.252C176.195 31.252 175.743 31.436 175.407 31.804C175.071 32.164 174.903 32.688 174.903 33.376V37H173.811V30.424H174.903V31.372C175.119 31.028 175.407 30.764 175.767 30.58C176.135 30.396 176.539 30.304 176.979 30.304C177.531 30.304 178.019 30.428 178.443 30.676C178.867 30.924 179.183 31.288 179.391 31.768C179.575 31.304 179.879 30.944 180.303 30.688C180.727 30.432 181.199 30.304 181.719 30.304ZM192.006 30.424V37H190.914V36.028C190.706 36.364 190.414 36.628 190.038 36.82C189.67 37.004 189.262 37.096 188.814 37.096C188.302 37.096 187.842 36.992 187.434 36.784C187.026 36.568 186.702 36.248 186.462 35.824C186.23 35.4 186.114 34.884 186.114 34.276V30.424H187.194V34.132C187.194 34.78 187.358 35.28 187.686 35.632C188.014 35.976 188.462 36.148 189.03 36.148C189.614 36.148 190.074 35.968 190.41 35.608C190.746 35.248 190.914 34.724 190.914 34.036V30.424H192.006ZM195.182 31.324V35.2C195.182 35.52 195.25 35.748 195.386 35.884C195.522 36.012 195.758 36.076 196.094 36.076H196.898V37H195.914C195.306 37 194.85 36.86 194.546 36.58C194.242 36.3 194.09 35.84 194.09 35.2V31.324H193.238V30.424H194.09V28.768H195.182V30.424H196.898V31.324H195.182ZM198.785 29.356C198.577 29.356 198.401 29.284 198.257 29.14C198.113 28.996 198.041 28.82 198.041 28.612C198.041 28.404 198.113 28.228 198.257 28.084C198.401 27.94 198.577 27.868 198.785 27.868C198.985 27.868 199.153 27.94 199.289 28.084C199.433 28.228 199.505 28.404 199.505 28.612C199.505 28.82 199.433 28.996 199.289 29.14C199.153 29.284 198.985 29.356 198.785 29.356ZM199.313 30.424V37H198.221V30.424H199.313ZM202.266 31.636C202.482 31.26 202.802 30.948 203.226 30.7C203.658 30.444 204.158 30.316 204.726 30.316C205.31 30.316 205.838 30.456 206.31 30.736C206.79 31.016 207.166 31.412 207.438 31.924C207.71 32.428 207.846 33.016 207.846 33.688C207.846 34.352 207.71 34.944 207.438 35.464C207.166 35.984 206.79 36.388 206.31 36.676C205.838 36.964 205.31 37.108 204.726 37.108C204.166 37.108 203.67 36.984 203.238 36.736C202.814 36.48 202.49 36.164 202.266 35.788V40.12H201.174V30.424H202.266V31.636ZM206.73 33.688C206.73 33.192 206.63 32.76 206.43 32.392C206.23 32.024 205.958 31.744 205.614 31.552C205.278 31.36 204.906 31.264 204.498 31.264C204.098 31.264 203.726 31.364 203.382 31.564C203.046 31.756 202.774 32.04 202.566 32.416C202.366 32.784 202.266 33.212 202.266 33.7C202.266 34.196 202.366 34.632 202.566 35.008C202.774 35.376 203.046 35.66 203.382 35.86C203.726 36.052 204.098 36.148 204.498 36.148C204.906 36.148 205.278 36.052 205.614 35.86C205.958 35.66 206.23 35.376 206.43 35.008C206.63 34.632 206.73 34.192 206.73 33.688ZM210.375 28.12V37H209.283V28.12H210.375ZM218.237 33.46C218.237 33.668 218.225 33.888 218.201 34.12H212.945C212.985 34.768 213.205 35.276 213.605 35.644C214.013 36.004 214.505 36.184 215.081 36.184C215.553 36.184 215.945 36.076 216.257 35.86C216.577 35.636 216.801 35.34 216.929 34.972H218.105C217.929 35.604 217.577 36.12 217.049 36.52C216.521 36.912 215.865 37.108 215.081 37.108C214.457 37.108 213.897 36.968 213.401 36.688C212.913 36.408 212.529 36.012 212.249 35.5C211.969 34.98 211.829 34.38 211.829 33.7C211.829 33.02 211.965 32.424 212.237 31.912C212.509 31.4 212.889 31.008 213.377 30.736C213.873 30.456 214.441 30.316 215.081 30.316C215.705 30.316 216.257 30.452 216.737 30.724C217.217 30.996 217.585 31.372 217.841 31.852C218.105 32.324 218.237 32.86 218.237 33.46ZM217.109 33.232C217.109 32.816 217.017 32.46 216.833 32.164C216.649 31.86 216.397 31.632 216.077 31.48C215.765 31.32 215.417 31.24 215.033 31.24C214.481 31.24 214.009 31.416 213.617 31.768C213.233 32.12 213.013 32.608 212.957 33.232H217.109ZM222.006 37.108C221.502 37.108 221.05 37.024 220.65 36.856C220.25 36.68 219.934 36.44 219.702 36.136C219.47 35.824 219.342 35.468 219.318 35.068H220.446C220.478 35.396 220.63 35.664 220.902 35.872C221.182 36.08 221.546 36.184 221.994 36.184C222.41 36.184 222.738 36.092 222.978 35.908C223.218 35.724 223.338 35.492 223.338 35.212C223.338 34.924 223.21 34.712 222.954 34.576C222.698 34.432 222.302 34.292 221.766 34.156C221.278 34.028 220.878 33.9 220.566 33.772C220.262 33.636 219.998 33.44 219.774 33.184C219.558 32.92 219.45 32.576 219.45 32.152C219.45 31.816 219.55 31.508 219.75 31.228C219.95 30.948 220.234 30.728 220.602 30.568C220.97 30.4 221.39 30.316 221.862 30.316C222.59 30.316 223.178 30.5 223.626 30.868C224.074 31.236 224.314 31.74 224.346 32.38H223.254C223.23 32.036 223.09 31.76 222.834 31.552C222.586 31.344 222.25 31.24 221.826 31.24C221.434 31.24 221.122 31.324 220.89 31.492C220.658 31.66 220.542 31.88 220.542 32.152C220.542 32.368 220.61 32.548 220.746 32.692C220.89 32.828 221.066 32.94 221.274 33.028C221.49 33.108 221.786 33.2 222.162 33.304C222.634 33.432 223.018 33.56 223.314 33.688C223.61 33.808 223.862 33.992 224.07 34.24C224.286 34.488 224.398 34.812 224.406 35.212C224.406 35.572 224.306 35.896 224.106 36.184C223.906 36.472 223.622 36.7 223.254 36.868C222.894 37.028 222.478 37.108 222.006 37.108ZM230.239 31.636C230.455 31.26 230.775 30.948 231.199 30.7C231.631 30.444 232.131 30.316 232.699 30.316C233.283 30.316 233.811 30.456 234.283 30.736C234.763 31.016 235.139 31.412 235.411 31.924C235.683 32.428 235.819 33.016 235.819 33.688C235.819 34.352 235.683 34.944 235.411 35.464C235.139 35.984 234.763 36.388 234.283 36.676C233.811 36.964 233.283 37.108 232.699 37.108C232.139 37.108 231.643 36.984 231.211 36.736C230.787 36.48 230.463 36.164 230.239 35.788V40.12H229.147V30.424H230.239V31.636ZM234.703 33.688C234.703 33.192 234.603 32.76 234.403 32.392C234.203 32.024 233.931 31.744 233.587 31.552C233.251 31.36 232.879 31.264 232.471 31.264C232.071 31.264 231.699 31.364 231.355 31.564C231.019 31.756 230.747 32.04 230.539 32.416C230.339 32.784 230.239 33.212 230.239 33.7C230.239 34.196 230.339 34.632 230.539 35.008C230.747 35.376 231.019 35.66 231.355 35.86C231.699 36.052 232.071 36.148 232.471 36.148C232.879 36.148 233.251 36.052 233.587 35.86C233.931 35.66 234.203 35.376 234.403 35.008C234.603 34.632 234.703 34.192 234.703 33.688ZM238.348 28.12V37H237.256V28.12H238.348ZM239.801 33.688C239.801 33.016 239.937 32.428 240.209 31.924C240.481 31.412 240.853 31.016 241.325 30.736C241.805 30.456 242.337 30.316 242.921 30.316C243.497 30.316 243.997 30.44 244.421 30.688C244.845 30.936 245.161 31.248 245.369 31.624V30.424H246.473V37H245.369V35.776C245.153 36.16 244.829 36.48 244.397 36.736C243.973 36.984 243.477 37.108 242.909 37.108C242.325 37.108 241.797 36.964 241.325 36.676C240.853 36.388 240.481 35.984 240.209 35.464C239.937 34.944 239.801 34.352 239.801 33.688ZM245.369 33.7C245.369 33.204 245.269 32.772 245.069 32.404C244.869 32.036 244.597 31.756 244.253 31.564C243.917 31.364 243.545 31.264 243.137 31.264C242.729 31.264 242.357 31.36 242.021 31.552C241.685 31.744 241.417 32.024 241.217 32.392C241.017 32.76 240.917 33.192 240.917 33.688C240.917 34.192 241.017 34.632 241.217 35.008C241.417 35.376 241.685 35.66 242.021 35.86C242.357 36.052 242.729 36.148 243.137 36.148C243.545 36.148 243.917 36.052 244.253 35.86C244.597 35.66 244.869 35.376 245.069 35.008C245.269 34.632 245.369 34.196 245.369 33.7ZM251.523 30.304C252.323 30.304 252.971 30.548 253.467 31.036C253.963 31.516 254.211 32.212 254.211 33.124V37H253.131V33.28C253.131 32.624 252.967 32.124 252.639 31.78C252.311 31.428 251.863 31.252 251.295 31.252C250.719 31.252 250.259 31.432 249.915 31.792C249.579 32.152 249.411 32.676 249.411 33.364V37H248.319V30.424H249.411V31.36C249.627 31.024 249.919 30.764 250.287 30.58C250.663 30.396 251.075 30.304 251.523 30.304ZM257.326 31.324V35.2C257.326 35.52 257.394 35.748 257.53 35.884C257.666 36.012 257.902 36.076 258.238 36.076H259.042V37H258.058C257.45 37 256.994 36.86 256.69 36.58C256.386 36.3 256.234 35.84 256.234 35.2V31.324H255.382V30.424H256.234V28.768H257.326V30.424H259.042V31.324H257.326ZM259.957 33.688C259.957 33.016 260.093 32.428 260.365 31.924C260.637 31.412 261.009 31.016 261.481 30.736C261.961 30.456 262.493 30.316 263.077 30.316C263.653 30.316 264.153 30.44 264.577 30.688C265.001 30.936 265.317 31.248 265.525 31.624V30.424H266.629V37H265.525V35.776C265.309 36.16 264.985 36.48 264.553 36.736C264.129 36.984 263.633 37.108 263.065 37.108C262.481 37.108 261.953 36.964 261.481 36.676C261.009 36.388 260.637 35.984 260.365 35.464C260.093 34.944 259.957 34.352 259.957 33.688ZM265.525 33.7C265.525 33.204 265.425 32.772 265.225 32.404C265.025 32.036 264.753 31.756 264.409 31.564C264.073 31.364 263.701 31.264 263.293 31.264C262.885 31.264 262.513 31.36 262.177 31.552C261.841 31.744 261.573 32.024 261.373 32.392C261.173 32.76 261.073 33.192 261.073 33.688C261.073 34.192 261.173 34.632 261.373 35.008C261.573 35.376 261.841 35.66 262.177 35.86C262.513 36.052 262.885 36.148 263.293 36.148C263.701 36.148 264.073 36.052 264.409 35.86C264.753 35.66 265.025 35.376 265.225 35.008C265.425 34.632 265.525 34.196 265.525 33.7ZM270.803 37.108C270.299 37.108 269.847 37.024 269.447 36.856C269.047 36.68 268.731 36.44 268.499 36.136C268.267 35.824 268.139 35.468 268.115 35.068H269.243C269.275 35.396 269.427 35.664 269.699 35.872C269.979 36.08 270.343 36.184 270.791 36.184C271.207 36.184 271.535 36.092 271.775 35.908C272.015 35.724 272.135 35.492 272.135 35.212C272.135 34.924 272.007 34.712 271.751 34.576C271.495 34.432 271.099 34.292 270.563 34.156C270.075 34.028 269.675 33.9 269.363 33.772C269.059 33.636 268.795 33.44 268.571 33.184C268.355 32.92 268.247 32.576 268.247 32.152C268.247 31.816 268.347 31.508 268.547 31.228C268.747 30.948 269.031 30.728 269.399 30.568C269.767 30.4 270.187 30.316 270.659 30.316C271.387 30.316 271.975 30.5 272.423 30.868C272.871 31.236 273.111 31.74 273.143 32.38H272.051C272.027 32.036 271.887 31.76 271.631 31.552C271.383 31.344 271.047 31.24 270.623 31.24C270.231 31.24 269.919 31.324 269.687 31.492C269.455 31.66 269.339 31.88 269.339 32.152C269.339 32.368 269.407 32.548 269.543 32.692C269.687 32.828 269.863 32.94 270.071 33.028C270.287 33.108 270.583 33.2 270.959 33.304C271.431 33.432 271.815 33.56 272.111 33.688C272.407 33.808 272.659 33.992 272.867 34.24C273.083 34.488 273.195 34.812 273.203 35.212C273.203 35.572 273.103 35.896 272.903 36.184C272.703 36.472 272.419 36.7 272.051 36.868C271.691 37.028 271.275 37.108 270.803 37.108ZM277.536 33.688C277.536 33.016 277.672 32.428 277.944 31.924C278.216 31.412 278.588 31.016 279.06 30.736C279.54 30.456 280.076 30.316 280.668 30.316C281.18 30.316 281.656 30.436 282.096 30.676C282.536 30.908 282.872 31.216 283.104 31.6V28.12H284.208V37H283.104V35.764C282.888 36.156 282.568 36.48 282.144 36.736C281.72 36.984 281.224 37.108 280.656 37.108C280.072 37.108 279.54 36.964 279.06 36.676C278.588 36.388 278.216 35.984 277.944 35.464C277.672 34.944 277.536 34.352 277.536 33.688ZM283.104 33.7C283.104 33.204 283.004 32.772 282.804 32.404C282.604 32.036 282.332 31.756 281.988 31.564C281.652 31.364 281.28 31.264 280.872 31.264C280.464 31.264 280.092 31.36 279.756 31.552C279.42 31.744 279.152 32.024 278.952 32.392C278.752 32.76 278.652 33.192 278.652 33.688C278.652 34.192 278.752 34.632 278.952 35.008C279.152 35.376 279.42 35.66 279.756 35.86C280.092 36.052 280.464 36.148 280.872 36.148C281.28 36.148 281.652 36.052 281.988 35.86C282.332 35.66 282.604 35.376 282.804 35.008C283.004 34.632 283.104 34.196 283.104 33.7ZM292.053 33.46C292.053 33.668 292.041 33.888 292.017 34.12H286.761C286.801 34.768 287.021 35.276 287.421 35.644C287.829 36.004 288.321 36.184 288.897 36.184C289.369 36.184 289.761 36.076 290.073 35.86C290.393 35.636 290.617 35.34 290.745 34.972H291.921C291.745 35.604 291.393 36.12 290.865 36.52C290.337 36.912 289.681 37.108 288.897 37.108C288.273 37.108 287.713 36.968 287.217 36.688C286.729 36.408 286.345 36.012 286.065 35.5C285.785 34.98 285.645 34.38 285.645 33.7C285.645 33.02 285.781 32.424 286.053 31.912C286.325 31.4 286.705 31.008 287.193 30.736C287.689 30.456 288.257 30.316 288.897 30.316C289.521 30.316 290.073 30.452 290.553 30.724C291.033 30.996 291.401 31.372 291.657 31.852C291.921 32.324 292.053 32.86 292.053 33.46ZM290.925 33.232C290.925 32.816 290.833 32.46 290.649 32.164C290.465 31.86 290.213 31.632 289.893 31.48C289.581 31.32 289.233 31.24 288.849 31.24C288.297 31.24 287.825 31.416 287.433 31.768C287.049 32.12 286.829 32.608 286.773 33.232H290.925ZM299.37 31.324H297.99V37H296.898V31.324H296.046V30.424H296.898V29.956C296.898 29.22 297.086 28.684 297.462 28.348C297.846 28.004 298.458 27.832 299.298 27.832V28.744C298.818 28.744 298.478 28.84 298.278 29.032C298.086 29.216 297.99 29.524 297.99 29.956V30.424H299.37V31.324ZM303.511 37.108C302.895 37.108 302.335 36.968 301.831 36.688C301.335 36.408 300.943 36.012 300.655 35.5C300.375 34.98 300.235 34.38 300.235 33.7C300.235 33.028 300.379 32.436 300.667 31.924C300.963 31.404 301.363 31.008 301.867 30.736C302.371 30.456 302.935 30.316 303.559 30.316C304.183 30.316 304.747 30.456 305.251 30.736C305.755 31.008 306.151 31.4 306.439 31.912C306.735 32.424 306.883 33.02 306.883 33.7C306.883 34.38 306.731 34.98 306.427 35.5C306.131 36.012 305.727 36.408 305.215 36.688C304.703 36.968 304.135 37.108 303.511 37.108ZM303.511 36.148C303.903 36.148 304.271 36.056 304.615 35.872C304.959 35.688 305.235 35.412 305.443 35.044C305.659 34.676 305.767 34.228 305.767 33.7C305.767 33.172 305.663 32.724 305.455 32.356C305.247 31.988 304.975 31.716 304.639 31.54C304.303 31.356 303.939 31.264 303.547 31.264C303.147 31.264 302.779 31.356 302.443 31.54C302.115 31.716 301.851 31.988 301.651 32.356C301.451 32.724 301.351 33.172 301.351 33.7C301.351 34.236 301.447 34.688 301.639 35.056C301.839 35.424 302.103 35.7 302.431 35.884C302.759 36.06 303.119 36.148 303.511 36.148ZM309.411 31.492C309.603 31.116 309.875 30.824 310.227 30.616C310.587 30.408 311.023 30.304 311.535 30.304V31.432H311.247C310.023 31.432 309.411 32.096 309.411 33.424V37H308.319V30.424H309.411V31.492ZM320.703 30.304C321.215 30.304 321.671 30.412 322.071 30.628C322.471 30.836 322.787 31.152 323.019 31.576C323.251 32 323.367 32.516 323.367 33.124V37H322.287V33.28C322.287 32.624 322.123 32.124 321.795 31.78C321.475 31.428 321.039 31.252 320.487 31.252C319.919 31.252 319.467 31.436 319.131 31.804C318.795 32.164 318.627 32.688 318.627 33.376V37H317.547V33.28C317.547 32.624 317.383 32.124 317.055 31.78C316.735 31.428 316.299 31.252 315.747 31.252C315.179 31.252 314.727 31.436 314.391 31.804C314.055 32.164 313.887 32.688 313.887 33.376V37H312.795V30.424H313.887V31.372C314.103 31.028 314.391 30.764 314.751 30.58C315.119 30.396 315.523 30.304 315.963 30.304C316.515 30.304 317.003 30.428 317.427 30.676C317.851 30.924 318.167 31.288 318.375 31.768C318.559 31.304 318.863 30.944 319.287 30.688C319.711 30.432 320.183 30.304 320.703 30.304ZM324.75 33.688C324.75 33.016 324.886 32.428 325.158 31.924C325.43 31.412 325.802 31.016 326.274 30.736C326.754 30.456 327.286 30.316 327.87 30.316C328.446 30.316 328.946 30.44 329.37 30.688C329.794 30.936 330.11 31.248 330.318 31.624V30.424H331.422V37H330.318V35.776C330.102 36.16 329.778 36.48 329.346 36.736C328.922 36.984 328.426 37.108 327.858 37.108C327.274 37.108 326.746 36.964 326.274 36.676C325.802 36.388 325.43 35.984 325.158 35.464C324.886 34.944 324.75 34.352 324.75 33.688ZM330.318 33.7C330.318 33.204 330.218 32.772 330.018 32.404C329.818 32.036 329.546 31.756 329.202 31.564C328.866 31.364 328.494 31.264 328.086 31.264C327.678 31.264 327.306 31.36 326.97 31.552C326.634 31.744 326.366 32.024 326.166 32.392C325.966 32.76 325.866 33.192 325.866 33.688C325.866 34.192 325.966 34.632 326.166 35.008C326.366 35.376 326.634 35.66 326.97 35.86C327.306 36.052 327.678 36.148 328.086 36.148C328.494 36.148 328.866 36.052 329.202 35.86C329.546 35.66 329.818 35.376 330.018 35.008C330.218 34.632 330.318 34.196 330.318 33.7ZM336.059 33.7C336.059 33.02 336.195 32.428 336.467 31.924C336.739 31.412 337.115 31.016 337.595 30.736C338.083 30.456 338.639 30.316 339.263 30.316C340.071 30.316 340.735 30.512 341.255 30.904C341.783 31.296 342.131 31.84 342.299 32.536H341.123C341.011 32.136 340.791 31.82 340.463 31.588C340.143 31.356 339.743 31.24 339.263 31.24C338.639 31.24 338.135 31.456 337.751 31.888C337.367 32.312 337.175 32.916 337.175 33.7C337.175 34.492 337.367 35.104 337.751 35.536C338.135 35.968 338.639 36.184 339.263 36.184C339.743 36.184 340.143 36.072 340.463 35.848C340.783 35.624 341.003 35.304 341.123 34.888H342.299C342.123 35.56 341.771 36.1 341.243 36.508C340.715 36.908 340.055 37.108 339.263 37.108C338.639 37.108 338.083 36.968 337.595 36.688C337.115 36.408 336.739 36.012 336.467 35.5C336.195 34.988 336.059 34.388 336.059 33.7ZM349.756 33.46C349.756 33.668 349.744 33.888 349.72 34.12H344.464C344.504 34.768 344.724 35.276 345.124 35.644C345.532 36.004 346.024 36.184 346.6 36.184C347.072 36.184 347.464 36.076 347.776 35.86C348.096 35.636 348.32 35.34 348.448 34.972H349.624C349.448 35.604 349.096 36.12 348.568 36.52C348.04 36.912 347.384 37.108 346.6 37.108C345.976 37.108 345.416 36.968 344.92 36.688C344.432 36.408 344.048 36.012 343.768 35.5C343.488 34.98 343.348 34.38 343.348 33.7C343.348 33.02 343.484 32.424 343.756 31.912C344.028 31.4 344.408 31.008 344.896 30.736C345.392 30.456 345.96 30.316 346.6 30.316C347.224 30.316 347.776 30.452 348.256 30.724C348.736 30.996 349.104 31.372 349.36 31.852C349.624 32.324 349.756 32.86 349.756 33.46ZM348.628 33.232C348.628 32.816 348.536 32.46 348.352 32.164C348.168 31.86 347.916 31.632 347.596 31.48C347.284 31.32 346.936 31.24 346.552 31.24C346 31.24 345.528 31.416 345.136 31.768C344.752 32.12 344.532 32.608 344.476 33.232H348.628ZM354.401 30.304C355.201 30.304 355.849 30.548 356.345 31.036C356.841 31.516 357.089 32.212 357.089 33.124V37H356.009V33.28C356.009 32.624 355.845 32.124 355.517 31.78C355.189 31.428 354.741 31.252 354.173 31.252C353.597 31.252 353.137 31.432 352.793 31.792C352.457 32.152 352.289 32.676 352.289 33.364V37H351.197V30.424H352.289V31.36C352.505 31.024 352.797 30.764 353.165 30.58C353.541 30.396 353.953 30.304 354.401 30.304ZM360.205 31.324V35.2C360.205 35.52 360.273 35.748 360.409 35.884C360.545 36.012 360.781 36.076 361.117 36.076H361.921V37H360.937C360.329 37 359.873 36.86 359.569 36.58C359.265 36.3 359.113 35.84 359.113 35.2V31.324H358.261V30.424H359.113V28.768H360.205V30.424H361.921V31.324H360.205ZM364.336 31.492C364.528 31.116 364.8 30.824 365.152 30.616C365.512 30.408 365.948 30.304 366.46 30.304V31.432H366.172C364.948 31.432 364.336 32.096 364.336 33.424V37H363.244V30.424H364.336V31.492ZM367.313 33.688C367.313 33.016 367.449 32.428 367.721 31.924C367.993 31.412 368.365 31.016 368.837 30.736C369.317 30.456 369.849 30.316 370.433 30.316C371.009 30.316 371.509 30.44 371.933 30.688C372.357 30.936 372.673 31.248 372.881 31.624V30.424H373.985V37H372.881V35.776C372.665 36.16 372.341 36.48 371.909 36.736C371.485 36.984 370.989 37.108 370.421 37.108C369.837 37.108 369.309 36.964 368.837 36.676C368.365 36.388 367.993 35.984 367.721 35.464C367.449 34.944 367.313 34.352 367.313 33.688ZM372.881 33.7C372.881 33.204 372.781 32.772 372.581 32.404C372.381 32.036 372.109 31.756 371.765 31.564C371.429 31.364 371.057 31.264 370.649 31.264C370.241 31.264 369.869 31.36 369.533 31.552C369.197 31.744 368.929 32.024 368.729 32.392C368.529 32.76 368.429 33.192 368.429 33.688C368.429 34.192 368.529 34.632 368.729 35.008C368.929 35.376 369.197 35.66 369.533 35.86C369.869 36.052 370.241 36.148 370.649 36.148C371.057 36.148 371.429 36.052 371.765 35.86C372.109 35.66 372.381 35.376 372.581 35.008C372.781 34.632 372.881 34.196 372.881 33.7ZM376.922 28.12V37H375.83V28.12H376.922ZM379.347 29.356C379.139 29.356 378.963 29.284 378.819 29.14C378.675 28.996 378.603 28.82 378.603 28.612C378.603 28.404 378.675 28.228 378.819 28.084C378.963 27.94 379.139 27.868 379.347 27.868C379.547 27.868 379.715 27.94 379.851 28.084C379.995 28.228 380.067 28.404 380.067 28.612C380.067 28.82 379.995 28.996 379.851 29.14C379.715 29.284 379.547 29.356 379.347 29.356ZM379.875 30.424V37H378.783V30.424H379.875ZM382.553 36.1H385.781V37H381.305V36.1L384.497 31.312H381.329V30.424H385.757V31.312L382.553 36.1ZM386.789 33.688C386.789 33.016 386.925 32.428 387.197 31.924C387.469 31.412 387.841 31.016 388.313 30.736C388.793 30.456 389.325 30.316 389.909 30.316C390.485 30.316 390.985 30.44 391.409 30.688C391.833 30.936 392.149 31.248 392.357 31.624V30.424H393.461V37H392.357V35.776C392.141 36.16 391.817 36.48 391.385 36.736C390.961 36.984 390.465 37.108 389.897 37.108C389.313 37.108 388.785 36.964 388.313 36.676C387.841 36.388 387.469 35.984 387.197 35.464C386.925 34.944 386.789 34.352 386.789 33.688ZM392.357 33.7C392.357 33.204 392.257 32.772 392.057 32.404C391.857 32.036 391.585 31.756 391.241 31.564C390.905 31.364 390.533 31.264 390.125 31.264C389.717 31.264 389.345 31.36 389.009 31.552C388.673 31.744 388.405 32.024 388.205 32.392C388.005 32.76 387.905 33.192 387.905 33.688C387.905 34.192 388.005 34.632 388.205 35.008C388.405 35.376 388.673 35.66 389.009 35.86C389.345 36.052 389.717 36.148 390.125 36.148C390.533 36.148 390.905 36.052 391.241 35.86C391.585 35.66 391.857 35.376 392.057 35.008C392.257 34.632 392.357 34.196 392.357 33.7ZM394.899 33.688C394.899 33.016 395.035 32.428 395.307 31.924C395.579 31.412 395.951 31.016 396.423 30.736C396.903 30.456 397.439 30.316 398.031 30.316C398.543 30.316 399.019 30.436 399.459 30.676C399.899 30.908 400.235 31.216 400.467 31.6V28.12H401.571V37H400.467V35.764C400.251 36.156 399.931 36.48 399.507 36.736C399.083 36.984 398.587 37.108 398.019 37.108C397.435 37.108 396.903 36.964 396.423 36.676C395.951 36.388 395.579 35.984 395.307 35.464C395.035 34.944 394.899 34.352 394.899 33.688ZM400.467 33.7C400.467 33.204 400.367 32.772 400.167 32.404C399.967 32.036 399.695 31.756 399.351 31.564C399.015 31.364 398.643 31.264 398.235 31.264C397.827 31.264 397.455 31.36 397.119 31.552C396.783 31.744 396.515 32.024 396.315 32.392C396.115 32.76 396.015 33.192 396.015 33.688C396.015 34.192 396.115 34.632 396.315 35.008C396.515 35.376 396.783 35.66 397.119 35.86C397.455 36.052 397.827 36.148 398.235 36.148C398.643 36.148 399.015 36.052 399.351 35.86C399.695 35.66 399.967 35.376 400.167 35.008C400.367 34.632 400.467 34.196 400.467 33.7ZM403.008 33.688C403.008 33.016 403.144 32.428 403.416 31.924C403.688 31.412 404.06 31.016 404.532 30.736C405.012 30.456 405.544 30.316 406.128 30.316C406.704 30.316 407.204 30.44 407.628 30.688C408.052 30.936 408.368 31.248 408.576 31.624V30.424H409.68V37H408.576V35.776C408.36 36.16 408.036 36.48 407.604 36.736C407.18 36.984 406.684 37.108 406.116 37.108C405.532 37.108 405.004 36.964 404.532 36.676C404.06 36.388 403.688 35.984 403.416 35.464C403.144 34.944 403.008 34.352 403.008 33.688ZM408.576 33.7C408.576 33.204 408.476 32.772 408.276 32.404C408.076 32.036 407.804 31.756 407.46 31.564C407.124 31.364 406.752 31.264 406.344 31.264C405.936 31.264 405.564 31.36 405.228 31.552C404.892 31.744 404.624 32.024 404.424 32.392C404.224 32.76 404.124 33.192 404.124 33.688C404.124 34.192 404.224 34.632 404.424 35.008C404.624 35.376 404.892 35.66 405.228 35.86C405.564 36.052 405.936 36.148 406.344 36.148C406.752 36.148 407.124 36.052 407.46 35.86C407.804 35.66 408.076 35.376 408.276 35.008C408.476 34.632 408.576 34.196 408.576 33.7Z" fill="white"/>
<path d="M47.298 5.27V15H45.702V8.336L42.734 15H41.628L38.646 8.336V15H37.05V5.27H38.772L42.188 12.9L45.59 5.27H47.298ZM52.7417 15.126C52.0137 15.126 51.3557 14.9627 50.7677 14.636C50.1797 14.3 49.7177 13.8333 49.3817 13.236C49.0457 12.6293 48.8777 11.9293 48.8777 11.136C48.8777 10.352 49.0504 9.65667 49.3957 9.05C49.741 8.44333 50.2124 7.97667 50.8097 7.65C51.407 7.32333 52.0744 7.16 52.8117 7.16C53.549 7.16 54.2164 7.32333 54.8137 7.65C55.411 7.97667 55.8824 8.44333 56.2277 9.05C56.573 9.65667 56.7457 10.352 56.7457 11.136C56.7457 11.92 56.5684 12.6153 56.2137 13.222C55.859 13.8287 55.3737 14.3 54.7577 14.636C54.151 14.9627 53.479 15.126 52.7417 15.126ZM52.7417 13.74C53.1524 13.74 53.535 13.642 53.8897 13.446C54.2537 13.25 54.5477 12.956 54.7717 12.564C54.9957 12.172 55.1077 11.696 55.1077 11.136C55.1077 10.576 55.0004 10.1047 54.7857 9.722C54.571 9.33 54.2864 9.036 53.9317 8.84C53.577 8.644 53.1944 8.546 52.7837 8.546C52.373 8.546 51.9904 8.644 51.6357 8.84C51.2904 9.036 51.015 9.33 50.8097 9.722C50.6044 10.1047 50.5017 10.576 50.5017 11.136C50.5017 11.9667 50.7117 12.6107 51.1317 13.068C51.561 13.516 52.0977 13.74 52.7417 13.74ZM62.2154 7.16C62.8221 7.16 63.3634 7.286 63.8394 7.538C64.3248 7.79 64.7028 8.16333 64.9734 8.658C65.2441 9.15267 65.3794 9.75 65.3794 10.45V15H63.7974V10.688C63.7974 9.99733 63.6248 9.47 63.2794 9.106C62.9341 8.73267 62.4628 8.546 61.8654 8.546C61.2681 8.546 60.7921 8.73267 60.4374 9.106C60.0921 9.47 59.9194 9.99733 59.9194 10.688V15H58.3234V7.286H59.9194V8.168C60.1808 7.85067 60.5121 7.60333 60.9134 7.426C61.3241 7.24867 61.7581 7.16 62.2154 7.16ZM68.2272 6.264C67.9379 6.264 67.6952 6.166 67.4992 5.97C67.3032 5.774 67.2052 5.53133 67.2052 5.242C67.2052 4.95267 67.3032 4.71 67.4992 4.514C67.6952 4.318 67.9379 4.22 68.2272 4.22C68.5072 4.22 68.7452 4.318 68.9412 4.514C69.1372 4.71 69.2352 4.95267 69.2352 5.242C69.2352 5.53133 69.1372 5.774 68.9412 5.97C68.7452 6.166 68.5072 6.264 68.2272 6.264ZM69.0112 7.286V15H67.4152V7.286H69.0112ZM72.9686 8.588V12.858C72.9686 13.1473 73.034 13.3573 73.1646 13.488C73.3046 13.6093 73.538 13.67 73.8646 13.67H74.8446V15H73.5846C72.866 15 72.3153 14.832 71.9326 14.496C71.55 14.16 71.3586 13.614 71.3586 12.858V8.588H70.4486V7.286H71.3586V5.368H72.9686V7.286H74.8446V8.588H72.9686ZM79.6616 15.126C78.9336 15.126 78.2756 14.9627 77.6876 14.636C77.0996 14.3 76.6376 13.8333 76.3016 13.236C75.9656 12.6293 75.7976 11.9293 75.7976 11.136C75.7976 10.352 75.9703 9.65667 76.3156 9.05C76.661 8.44333 77.1323 7.97667 77.7296 7.65C78.327 7.32333 78.9943 7.16 79.7316 7.16C80.469 7.16 81.1363 7.32333 81.7336 7.65C82.331 7.97667 82.8023 8.44333 83.1476 9.05C83.493 9.65667 83.6656 10.352 83.6656 11.136C83.6656 11.92 83.4883 12.6153 83.1336 13.222C82.779 13.8287 82.2936 14.3 81.6776 14.636C81.071 14.9627 80.399 15.126 79.6616 15.126ZM79.6616 13.74C80.0723 13.74 80.455 13.642 80.8096 13.446C81.1736 13.25 81.4676 12.956 81.6916 12.564C81.9156 12.172 82.0276 11.696 82.0276 11.136C82.0276 10.576 81.9203 10.1047 81.7056 9.722C81.491 9.33 81.2063 9.036 80.8516 8.84C80.497 8.644 80.1143 8.546 79.7036 8.546C79.293 8.546 78.9103 8.644 78.5556 8.84C78.2103 9.036 77.935 9.33 77.7296 9.722C77.5243 10.1047 77.4216 10.576 77.4216 11.136C77.4216 11.9667 77.6316 12.6107 78.0516 13.068C78.481 13.516 79.0176 13.74 79.6616 13.74ZM86.8394 8.406C87.0727 8.014 87.3807 7.71067 87.7634 7.496C88.1554 7.272 88.6174 7.16 89.1494 7.16V8.812H88.7434C88.118 8.812 87.642 8.97067 87.3154 9.288C86.998 9.60533 86.8394 10.156 86.8394 10.94V15H85.2434V7.286H86.8394V8.406ZM97.6864 10.954C97.6864 11.2433 97.6677 11.5047 97.6304 11.738H91.7364C91.7831 12.354 92.0117 12.8487 92.4224 13.222C92.8331 13.5953 93.3371 13.782 93.9344 13.782C94.7931 13.782 95.3997 13.4227 95.7544 12.704H97.4764C97.2431 13.4133 96.8184 13.9967 96.2024 14.454C95.5957 14.902 94.8397 15.126 93.9344 15.126C93.1971 15.126 92.5344 14.9627 91.9464 14.636C91.3677 14.3 90.9104 13.8333 90.5744 13.236C90.2477 12.6293 90.0844 11.9293 90.0844 11.136C90.0844 10.3427 90.2431 9.64733 90.5604 9.05C90.8871 8.44333 91.3397 7.97667 91.9184 7.65C92.5064 7.32333 93.1784 7.16 93.9344 7.16C94.6624 7.16 95.3111 7.31867 95.8804 7.636C96.4497 7.95333 96.8931 8.40133 97.2104 8.98C97.5277 9.54933 97.6864 10.2073 97.6864 10.954ZM96.0204 10.45C96.0111 9.862 95.8011 9.39067 95.3904 9.036C94.9797 8.68133 94.4711 8.504 93.8644 8.504C93.3137 8.504 92.8424 8.68133 92.4504 9.036C92.0584 9.38133 91.8251 9.85267 91.7504 10.45H96.0204ZM102.603 15.126C101.875 15.126 101.217 14.9627 100.629 14.636C100.041 14.3 99.579 13.8333 99.243 13.236C98.907 12.6293 98.739 11.9293 98.739 11.136C98.739 10.352 98.9117 9.65667 99.257 9.05C99.6024 8.44333 100.074 7.97667 100.671 7.65C101.268 7.32333 101.936 7.16 102.673 7.16C103.41 7.16 104.078 7.32333 104.675 7.65C105.272 7.97667 105.744 8.44333 106.089 9.05C106.434 9.65667 106.607 10.352 106.607 11.136C106.607 11.92 106.43 12.6153 106.075 13.222C105.72 13.8287 105.235 14.3 104.619 14.636C104.012 14.9627 103.34 15.126 102.603 15.126ZM102.603 13.74C103.014 13.74 103.396 13.642 103.751 13.446C104.115 13.25 104.409 12.956 104.633 12.564C104.857 12.172 104.969 11.696 104.969 11.136C104.969 10.576 104.862 10.1047 104.647 9.722C104.432 9.33 104.148 9.036 103.793 8.84C103.438 8.644 103.056 8.546 102.645 8.546C102.234 8.546 101.852 8.644 101.497 8.84C101.152 9.036 100.876 9.33 100.671 9.722C100.466 10.1047 100.363 10.576 100.363 11.136C100.363 11.9667 100.573 12.6107 100.993 13.068C101.422 13.516 101.959 13.74 102.603 13.74ZM112.633 6.264C112.344 6.264 112.101 6.166 111.905 5.97C111.709 5.774 111.611 5.53133 111.611 5.242C111.611 4.95267 111.709 4.71 111.905 4.514C112.101 4.318 112.344 4.22 112.633 4.22C112.913 4.22 113.151 4.318 113.347 4.514C113.543 4.71 113.641 4.95267 113.641 5.242C113.641 5.53133 113.543 5.774 113.347 5.97C113.151 6.166 112.913 6.264 112.633 6.264ZM113.417 7.286V15H111.821V7.286H113.417ZM119.405 7.16C120.012 7.16 120.553 7.286 121.029 7.538C121.514 7.79 121.892 8.16333 122.163 8.658C122.434 9.15267 122.569 9.75 122.569 10.45V15H120.987V10.688C120.987 9.99733 120.814 9.47 120.469 9.106C120.124 8.73267 119.652 8.546 119.055 8.546C118.458 8.546 117.982 8.73267 117.627 9.106C117.282 9.47 117.109 9.99733 117.109 10.688V15H115.513V7.286H117.109V8.168C117.37 7.85067 117.702 7.60333 118.103 7.426C118.514 7.24867 118.948 7.16 119.405 7.16ZM126.467 8.588V12.858C126.467 13.1473 126.532 13.3573 126.663 13.488C126.803 13.6093 127.036 13.67 127.363 13.67H128.343V15H127.083C126.364 15 125.813 14.832 125.431 14.496C125.048 14.16 124.857 13.614 124.857 12.858V8.588H123.947V7.286H124.857V5.368H126.467V7.286H128.343V8.588H126.467ZM136.884 10.954C136.884 11.2433 136.865 11.5047 136.828 11.738H130.934C130.98 12.354 131.209 12.8487 131.62 13.222C132.03 13.5953 132.534 13.782 133.132 13.782C133.99 13.782 134.597 13.4227 134.952 12.704H136.674C136.44 13.4133 136.016 13.9967 135.4 14.454C134.793 14.902 134.037 15.126 133.132 15.126C132.394 15.126 131.732 14.9627 131.144 14.636C130.565 14.3 130.108 13.8333 129.772 13.236C129.445 12.6293 129.282 11.9293 129.282 11.136C129.282 10.3427 129.44 9.64733 129.758 9.05C130.084 8.44333 130.537 7.97667 131.116 7.65C131.704 7.32333 132.376 7.16 133.132 7.16C133.86 7.16 134.508 7.31867 135.078 7.636C135.647 7.95333 136.09 8.40133 136.408 8.98C136.725 9.54933 136.884 10.2073 136.884 10.954ZM135.218 10.45C135.208 9.862 134.998 9.39067 134.588 9.036C134.177 8.68133 133.668 8.504 133.062 8.504C132.511 8.504 132.04 8.68133 131.648 9.036C131.256 9.38133 131.022 9.85267 130.948 10.45H135.218ZM141.562 7.16C142.16 7.16 142.687 7.28133 143.144 7.524C143.611 7.75733 143.975 8.05133 144.236 8.406V7.286H145.846V15.126C145.846 15.8353 145.697 16.4653 145.398 17.016C145.1 17.576 144.666 18.0147 144.096 18.332C143.536 18.6493 142.864 18.808 142.08 18.808C141.035 18.808 140.167 18.5607 139.476 18.066C138.786 17.5807 138.394 16.918 138.3 16.078H139.882C140.004 16.4793 140.26 16.8013 140.652 17.044C141.054 17.296 141.53 17.422 142.08 17.422C142.724 17.422 143.242 17.226 143.634 16.834C144.036 16.442 144.236 15.8727 144.236 15.126V13.838C143.966 14.202 143.597 14.51 143.13 14.762C142.673 15.0047 142.15 15.126 141.562 15.126C140.89 15.126 140.274 14.958 139.714 14.622C139.164 14.2767 138.725 13.8007 138.398 13.194C138.081 12.578 137.922 11.8827 137.922 11.108C137.922 10.3333 138.081 9.64733 138.398 9.05C138.725 8.45267 139.164 7.99067 139.714 7.664C140.274 7.328 140.89 7.16 141.562 7.16ZM144.236 11.136C144.236 10.604 144.124 10.142 143.9 9.75C143.686 9.358 143.401 9.05933 143.046 8.854C142.692 8.64867 142.309 8.546 141.898 8.546C141.488 8.546 141.105 8.64867 140.75 8.854C140.396 9.05 140.106 9.344 139.882 9.736C139.668 10.1187 139.56 10.576 139.56 11.108C139.56 11.64 139.668 12.1067 139.882 12.508C140.106 12.9093 140.396 13.2173 140.75 13.432C141.114 13.6373 141.497 13.74 141.898 13.74C142.309 13.74 142.692 13.6373 143.046 13.432C143.401 13.2267 143.686 12.928 143.9 12.536C144.124 12.1347 144.236 11.668 144.236 11.136ZM149.539 8.406C149.772 8.014 150.08 7.71067 150.463 7.496C150.855 7.272 151.317 7.16 151.849 7.16V8.812H151.443C150.817 8.812 150.341 8.97067 150.015 9.288C149.697 9.60533 149.539 10.156 149.539 10.94V15H147.943V7.286H149.539V8.406ZM152.784 11.108C152.784 10.3333 152.942 9.64733 153.26 9.05C153.586 8.45267 154.025 7.99067 154.576 7.664C155.136 7.328 155.752 7.16 156.424 7.16C157.03 7.16 157.558 7.28133 158.006 7.524C158.463 7.75733 158.827 8.05133 159.098 8.406V7.286H160.708V15H159.098V13.852C158.827 14.216 158.458 14.5193 157.992 14.762C157.525 15.0047 156.993 15.126 156.396 15.126C155.733 15.126 155.126 14.958 154.576 14.622C154.025 14.2767 153.586 13.8007 153.26 13.194C152.942 12.578 152.784 11.8827 152.784 11.108ZM159.098 11.136C159.098 10.604 158.986 10.142 158.762 9.75C158.547 9.358 158.262 9.05933 157.908 8.854C157.553 8.64867 157.17 8.546 156.76 8.546C156.349 8.546 155.966 8.64867 155.612 8.854C155.257 9.05 154.968 9.344 154.744 9.736C154.529 10.1187 154.422 10.576 154.422 11.108C154.422 11.64 154.529 12.1067 154.744 12.508C154.968 12.9093 155.257 13.2173 155.612 13.432C155.976 13.6373 156.358 13.74 156.76 13.74C157.17 13.74 157.553 13.6373 157.908 13.432C158.262 13.2267 158.547 12.928 158.762 12.536C158.986 12.1347 159.098 11.668 159.098 11.136ZM164.4 4.64V15H162.804V4.64H164.4Z" fill="white"/>
<path fill-rule="evenodd" clip-rule="evenodd" d="M17.0001 20V11H15.0001V4H22.0001L20.0001 9H22.0001L17.0001 20ZM15 13V20H3.99997C2.89997 20 1.99997 19.1 1.99997 18V15C1.99997 13.9 2.89997 13 3.99997 13H15ZM6.24984 15.75H4.74984V17.25H6.24984V15.75ZM12.9998 4V11H3.99976C2.89976 11 1.99976 10.1 1.99976 9V6C1.99976 4.9 2.89976 4 3.99976 4H12.9998ZM6.24984 6.75003H4.74984V8.25003H6.24984V6.75003Z" fill="#FFB84B"/>
</svg>
