<svg width="380" height="41" viewBox="0 0 380 41" fill="none" xmlns="http://www.w3.org/2000/svg">
<path d="M39.3275 37L37.3355 33.58H36.0155V37H34.9235V28.636H37.6235C38.2555 28.636 38.7875 28.744 39.2195 28.96C39.6595 29.176 39.9875 29.468 40.2035 29.836C40.4195 30.204 40.5275 30.624 40.5275 31.096C40.5275 31.672 40.3595 32.18 40.0235 32.62C39.6955 33.06 39.1995 33.352 38.5355 33.496L40.6355 37H39.3275ZM36.0155 32.704H37.6235C38.2155 32.704 38.6595 32.56 38.9555 32.272C39.2515 31.976 39.3995 31.584 39.3995 31.096C39.3995 30.6 39.2515 30.216 38.9555 29.944C38.6675 29.672 38.2235 29.536 37.6235 29.536H36.0155V32.704ZM48.2243 33.46C48.2243 33.668 48.2123 33.888 48.1883 34.12H42.9323C42.9723 34.768 43.1923 35.276 43.5923 35.644C44.0003 36.004 44.4923 36.184 45.0683 36.184C45.5403 36.184 45.9323 36.076 46.2443 35.86C46.5643 35.636 46.7883 35.34 46.9163 34.972H48.0923C47.9163 35.604 47.5643 36.12 47.0363 36.52C46.5083 36.912 45.8523 37.108 45.0683 37.108C44.4443 37.108 43.8843 36.968 43.3883 36.688C42.9003 36.408 42.5163 36.012 42.2363 35.5C41.9563 34.98 41.8163 34.38 41.8163 33.7C41.8163 33.02 41.9523 32.424 42.2243 31.912C42.4963 31.4 42.8763 31.008 43.3643 30.736C43.8603 30.456 44.4283 30.316 45.0683 30.316C45.6923 30.316 46.2443 30.452 46.7243 30.724C47.2043 30.996 47.5723 31.372 47.8283 31.852C48.0923 32.324 48.2243 32.86 48.2243 33.46ZM47.0963 33.232C47.0963 32.816 47.0043 32.46 46.8203 32.164C46.6363 31.86 46.3843 31.632 46.0643 31.48C45.7523 31.32 45.4043 31.24 45.0203 31.24C44.4683 31.24 43.9963 31.416 43.6043 31.768C43.2203 32.12 43.0003 32.608 42.9443 33.232H47.0963ZM49.2577 33.7C49.2577 33.02 49.3937 32.428 49.6657 31.924C49.9377 31.412 50.3137 31.016 50.7937 30.736C51.2817 30.456 51.8377 30.316 52.4617 30.316C53.2697 30.316 53.9337 30.512 54.4537 30.904C54.9817 31.296 55.3297 31.84 55.4977 32.536H54.3217C54.2097 32.136 53.9897 31.82 53.6617 31.588C53.3417 31.356 52.9417 31.24 52.4617 31.24C51.8377 31.24 51.3337 31.456 50.9497 31.888C50.5657 32.312 50.3737 32.916 50.3737 33.7C50.3737 34.492 50.5657 35.104 50.9497 35.536C51.3337 35.968 51.8377 36.184 52.4617 36.184C52.9417 36.184 53.3417 36.072 53.6617 35.848C53.9817 35.624 54.2017 35.304 54.3217 34.888H55.4977C55.3217 35.56 54.9697 36.1 54.4417 36.508C53.9137 36.908 53.2537 37.108 52.4617 37.108C51.8377 37.108 51.2817 36.968 50.7937 36.688C50.3137 36.408 49.9377 36.012 49.6657 35.5C49.3937 34.988 49.2577 34.388 49.2577 33.7ZM57.5188 29.356C57.3108 29.356 57.1348 29.284 56.9908 29.14C56.8468 28.996 56.7748 28.82 56.7748 28.612C56.7748 28.404 56.8468 28.228 56.9908 28.084C57.1348 27.94 57.3108 27.868 57.5188 27.868C57.7188 27.868 57.8868 27.94 58.0228 28.084C58.1668 28.228 58.2388 28.404 58.2388 28.612C58.2388 28.82 58.1668 28.996 58.0228 29.14C57.8868 29.284 57.7188 29.356 57.5188 29.356ZM58.0468 30.424V37H56.9548V30.424H58.0468ZM60.9999 31.648C61.2239 31.256 61.5519 30.936 61.9839 30.688C62.4159 30.44 62.9079 30.316 63.4599 30.316C64.0519 30.316 64.5839 30.456 65.0559 30.736C65.5279 31.016 65.8999 31.412 66.1719 31.924C66.4439 32.428 66.5799 33.016 66.5799 33.688C66.5799 34.352 66.4439 34.944 66.1719 35.464C65.8999 35.984 65.5239 36.388 65.0439 36.676C64.5719 36.964 64.0439 37.108 63.4599 37.108C62.8919 37.108 62.3919 36.984 61.9599 36.736C61.5359 36.488 61.2159 36.172 60.9999 35.788V37H59.9079V28.12H60.9999V31.648ZM65.4639 33.688C65.4639 33.192 65.3639 32.76 65.1639 32.392C64.9639 32.024 64.6919 31.744 64.3479 31.552C64.0119 31.36 63.6399 31.264 63.2319 31.264C62.8319 31.264 62.4599 31.364 62.1159 31.564C61.7799 31.756 61.5079 32.04 61.2999 32.416C61.0999 32.784 60.9999 33.212 60.9999 33.7C60.9999 34.196 61.0999 34.632 61.2999 35.008C61.5079 35.376 61.7799 35.66 62.1159 35.86C62.4599 36.052 62.8319 36.148 63.2319 36.148C63.6399 36.148 64.0119 36.052 64.3479 35.86C64.6919 35.66 64.9639 35.376 65.1639 35.008C65.3639 34.632 65.4639 34.192 65.4639 33.688ZM68.5813 29.356C68.3733 29.356 68.1973 29.284 68.0533 29.14C67.9093 28.996 67.8373 28.82 67.8373 28.612C67.8373 28.404 67.9093 28.228 68.0533 28.084C68.1973 27.94 68.3733 27.868 68.5813 27.868C68.7813 27.868 68.9493 27.94 69.0853 28.084C69.2293 28.228 69.3013 28.404 69.3013 28.612C69.3013 28.82 69.2293 28.996 69.0853 29.14C68.9493 29.284 68.7813 29.356 68.5813 29.356ZM69.1093 30.424V37H68.0173V30.424H69.1093ZM77.3736 30.304C78.1736 30.304 78.8216 30.548 79.3176 31.036C79.8136 31.516 80.0616 32.212 80.0616 33.124V37H78.9816V33.28C78.9816 32.624 78.8176 32.124 78.4896 31.78C78.1616 31.428 77.7136 31.252 77.1456 31.252C76.5696 31.252 76.1096 31.432 75.7656 31.792C75.4296 32.152 75.2616 32.676 75.2616 33.364V37H74.1696V30.424H75.2616V31.36C75.4776 31.024 75.7696 30.764 76.1376 30.58C76.5136 30.396 76.9256 30.304 77.3736 30.304ZM84.7134 37.108C84.0974 37.108 83.5374 36.968 83.0334 36.688C82.5374 36.408 82.1454 36.012 81.8574 35.5C81.5774 34.98 81.4374 34.38 81.4374 33.7C81.4374 33.028 81.5814 32.436 81.8694 31.924C82.1654 31.404 82.5654 31.008 83.0694 30.736C83.5734 30.456 84.1374 30.316 84.7614 30.316C85.3854 30.316 85.9494 30.456 86.4534 30.736C86.9574 31.008 87.3534 31.4 87.6414 31.912C87.9374 32.424 88.0854 33.02 88.0854 33.7C88.0854 34.38 87.9334 34.98 87.6294 35.5C87.3334 36.012 86.9294 36.408 86.4174 36.688C85.9054 36.968 85.3374 37.108 84.7134 37.108ZM84.7134 36.148C85.1054 36.148 85.4734 36.056 85.8174 35.872C86.1614 35.688 86.4374 35.412 86.6454 35.044C86.8614 34.676 86.9694 34.228 86.9694 33.7C86.9694 33.172 86.8654 32.724 86.6574 32.356C86.4494 31.988 86.1774 31.716 85.8414 31.54C85.5054 31.356 85.1414 31.264 84.7494 31.264C84.3494 31.264 83.9814 31.356 83.6454 31.54C83.3174 31.716 83.0534 31.988 82.8534 32.356C82.6534 32.724 82.5534 33.172 82.5534 33.7C82.5534 34.236 82.6494 34.688 82.8414 35.056C83.0414 35.424 83.3054 35.7 83.6334 35.884C83.9614 36.06 84.3214 36.148 84.7134 36.148ZM90.8532 31.324V35.2C90.8532 35.52 90.9212 35.748 91.0572 35.884C91.1932 36.012 91.4292 36.076 91.7652 36.076H92.5692V37H91.5852C90.9772 37 90.5212 36.86 90.2172 36.58C89.9132 36.3 89.7612 35.84 89.7612 35.2V31.324H88.9092V30.424H89.7612V28.768H90.8532V30.424H92.5692V31.324H90.8532ZM94.4563 29.356C94.2483 29.356 94.0723 29.284 93.9283 29.14C93.7843 28.996 93.7123 28.82 93.7123 28.612C93.7123 28.404 93.7843 28.228 93.9283 28.084C94.0723 27.94 94.2483 27.868 94.4563 27.868C94.6563 27.868 94.8243 27.94 94.9603 28.084C95.1043 28.228 95.1763 28.404 95.1763 28.612C95.1763 28.82 95.1043 28.996 94.9603 29.14C94.8243 29.284 94.6563 29.356 94.4563 29.356ZM94.9843 30.424V37H93.8923V30.424H94.9843ZM99.5214 31.324H98.1414V37H97.0494V31.324H96.1974V30.424H97.0494V29.956C97.0494 29.22 97.2374 28.684 97.6134 28.348C97.9974 28.004 98.6094 27.832 99.4494 27.832V28.744C98.9694 28.744 98.6294 28.84 98.4294 29.032C98.2374 29.216 98.1414 29.524 98.1414 29.956V30.424H99.5214V31.324ZM101.359 29.356C101.151 29.356 100.975 29.284 100.831 29.14C100.687 28.996 100.615 28.82 100.615 28.612C100.615 28.404 100.687 28.228 100.831 28.084C100.975 27.94 101.151 27.868 101.359 27.868C101.559 27.868 101.727 27.94 101.863 28.084C102.007 28.228 102.079 28.404 102.079 28.612C102.079 28.82 102.007 28.996 101.863 29.14C101.727 29.284 101.559 29.356 101.359 29.356ZM101.887 30.424V37H100.795V30.424H101.887ZM103.34 33.7C103.34 33.02 103.476 32.428 103.748 31.924C104.02 31.412 104.396 31.016 104.876 30.736C105.364 30.456 105.92 30.316 106.544 30.316C107.352 30.316 108.016 30.512 108.536 30.904C109.064 31.296 109.412 31.84 109.58 32.536H108.404C108.292 32.136 108.072 31.82 107.744 31.588C107.424 31.356 107.024 31.24 106.544 31.24C105.92 31.24 105.416 31.456 105.032 31.888C104.648 32.312 104.456 32.916 104.456 33.7C104.456 34.492 104.648 35.104 105.032 35.536C105.416 35.968 105.92 36.184 106.544 36.184C107.024 36.184 107.424 36.072 107.744 35.848C108.064 35.624 108.284 35.304 108.404 34.888H109.58C109.404 35.56 109.052 36.1 108.524 36.508C107.996 36.908 107.336 37.108 106.544 37.108C105.92 37.108 105.364 36.968 104.876 36.688C104.396 36.408 104.02 36.012 103.748 35.5C103.476 34.988 103.34 34.388 103.34 33.7ZM110.629 33.688C110.629 33.016 110.765 32.428 111.037 31.924C111.309 31.412 111.681 31.016 112.153 30.736C112.633 30.456 113.165 30.316 113.749 30.316C114.325 30.316 114.825 30.44 115.249 30.688C115.673 30.936 115.989 31.248 116.197 31.624V30.424H117.301V37H116.197V35.776C115.981 36.16 115.657 36.48 115.225 36.736C114.801 36.984 114.305 37.108 113.737 37.108C113.153 37.108 112.625 36.964 112.153 36.676C111.681 36.388 111.309 35.984 111.037 35.464C110.765 34.944 110.629 34.352 110.629 33.688ZM116.197 33.7C116.197 33.204 116.097 32.772 115.897 32.404C115.697 32.036 115.425 31.756 115.081 31.564C114.745 31.364 114.373 31.264 113.965 31.264C113.557 31.264 113.185 31.36 112.849 31.552C112.513 31.744 112.245 32.024 112.045 32.392C111.845 32.76 111.745 33.192 111.745 33.688C111.745 34.192 111.845 34.632 112.045 35.008C112.245 35.376 112.513 35.66 112.849 35.86C113.185 36.052 113.557 36.148 113.965 36.148C114.373 36.148 114.745 36.052 115.081 35.86C115.425 35.66 115.697 35.376 115.897 35.008C116.097 34.632 116.197 34.196 116.197 33.7ZM118.738 33.7C118.738 33.02 118.874 32.428 119.146 31.924C119.418 31.412 119.794 31.016 120.274 30.736C120.762 30.456 121.318 30.316 121.942 30.316C122.75 30.316 123.414 30.512 123.934 30.904C124.462 31.296 124.81 31.84 124.978 32.536H123.802C123.69 32.136 123.47 31.82 123.142 31.588C122.822 31.356 122.422 31.24 121.942 31.24C121.318 31.24 120.814 31.456 120.43 31.888C120.046 32.312 119.854 32.916 119.854 33.7C119.854 34.492 120.046 35.104 120.43 35.536C120.814 35.968 121.318 36.184 121.942 36.184C122.422 36.184 122.822 36.072 123.142 35.848C123.462 35.624 123.682 35.304 123.802 34.888H124.978C124.802 35.56 124.45 36.1 123.922 36.508C123.394 36.908 122.734 37.108 121.942 37.108C121.318 37.108 120.762 36.968 120.274 36.688C119.794 36.408 119.418 36.012 119.146 35.5C118.874 34.988 118.738 34.388 118.738 33.7ZM126.999 29.356C126.791 29.356 126.615 29.284 126.471 29.14C126.327 28.996 126.255 28.82 126.255 28.612C126.255 28.404 126.327 28.228 126.471 28.084C126.615 27.94 126.791 27.868 126.999 27.868C127.199 27.868 127.367 27.94 127.503 28.084C127.647 28.228 127.719 28.404 127.719 28.612C127.719 28.82 127.647 28.996 127.503 29.14C127.367 29.284 127.199 29.356 126.999 29.356ZM127.527 30.424V37H126.435V30.424H127.527ZM132.256 37.108C131.64 37.108 131.08 36.968 130.576 36.688C130.08 36.408 129.688 36.012 129.4 35.5C129.12 34.98 128.98 34.38 128.98 33.7C128.98 33.028 129.124 32.436 129.412 31.924C129.708 31.404 130.108 31.008 130.612 30.736C131.116 30.456 131.68 30.316 132.304 30.316C132.928 30.316 133.492 30.456 133.996 30.736C134.5 31.008 134.896 31.4 135.184 31.912C135.48 32.424 135.628 33.02 135.628 33.7C135.628 34.38 135.476 34.98 135.172 35.5C134.876 36.012 134.472 36.408 133.96 36.688C133.448 36.968 132.88 37.108 132.256 37.108ZM132.256 36.148C132.648 36.148 133.016 36.056 133.36 35.872C133.704 35.688 133.98 35.412 134.188 35.044C134.404 34.676 134.512 34.228 134.512 33.7C134.512 33.172 134.408 32.724 134.2 32.356C133.992 31.988 133.72 31.716 133.384 31.54C133.048 31.356 132.684 31.264 132.292 31.264C131.892 31.264 131.524 31.356 131.188 31.54C130.86 31.716 130.596 31.988 130.396 32.356C130.196 32.724 130.096 33.172 130.096 33.7C130.096 34.236 130.192 34.688 130.384 35.056C130.584 35.424 130.848 35.7 131.176 35.884C131.504 36.06 131.864 36.148 132.256 36.148ZM140.268 30.304C141.068 30.304 141.716 30.548 142.212 31.036C142.708 31.516 142.956 32.212 142.956 33.124V37H141.876V33.28C141.876 32.624 141.712 32.124 141.384 31.78C141.056 31.428 140.608 31.252 140.04 31.252C139.464 31.252 139.004 31.432 138.66 31.792C138.324 32.152 138.156 32.676 138.156 33.364V37H137.064V30.424H138.156V31.36C138.372 31.024 138.664 30.764 139.032 30.58C139.408 30.396 139.82 30.304 140.268 30.304ZM150.74 33.46C150.74 33.668 150.728 33.888 150.704 34.12H145.448C145.488 34.768 145.708 35.276 146.108 35.644C146.516 36.004 147.008 36.184 147.584 36.184C148.056 36.184 148.448 36.076 148.76 35.86C149.08 35.636 149.304 35.34 149.432 34.972H150.608C150.432 35.604 150.08 36.12 149.552 36.52C149.024 36.912 148.368 37.108 147.584 37.108C146.96 37.108 146.4 36.968 145.904 36.688C145.416 36.408 145.032 36.012 144.752 35.5C144.472 34.98 144.332 34.38 144.332 33.7C144.332 33.02 144.468 32.424 144.74 31.912C145.012 31.4 145.392 31.008 145.88 30.736C146.376 30.456 146.944 30.316 147.584 30.316C148.208 30.316 148.76 30.452 149.24 30.724C149.72 30.996 150.088 31.372 150.344 31.852C150.608 32.324 150.74 32.86 150.74 33.46ZM149.612 33.232C149.612 32.816 149.52 32.46 149.336 32.164C149.152 31.86 148.9 31.632 148.58 31.48C148.268 31.32 147.92 31.24 147.536 31.24C146.984 31.24 146.512 31.416 146.12 31.768C145.736 32.12 145.516 32.608 145.46 33.232H149.612ZM154.509 37.108C154.005 37.108 153.553 37.024 153.153 36.856C152.753 36.68 152.437 36.44 152.205 36.136C151.973 35.824 151.845 35.468 151.821 35.068H152.949C152.981 35.396 153.133 35.664 153.405 35.872C153.685 36.08 154.049 36.184 154.497 36.184C154.913 36.184 155.241 36.092 155.481 35.908C155.721 35.724 155.841 35.492 155.841 35.212C155.841 34.924 155.713 34.712 155.457 34.576C155.201 34.432 154.805 34.292 154.269 34.156C153.781 34.028 153.381 33.9 153.069 33.772C152.765 33.636 152.501 33.44 152.277 33.184C152.061 32.92 151.953 32.576 151.953 32.152C151.953 31.816 152.053 31.508 152.253 31.228C152.453 30.948 152.737 30.728 153.105 30.568C153.473 30.4 153.893 30.316 154.365 30.316C155.093 30.316 155.681 30.5 156.129 30.868C156.577 31.236 156.817 31.74 156.849 32.38H155.757C155.733 32.036 155.593 31.76 155.337 31.552C155.089 31.344 154.753 31.24 154.329 31.24C153.937 31.24 153.625 31.324 153.393 31.492C153.161 31.66 153.045 31.88 153.045 32.152C153.045 32.368 153.113 32.548 153.249 32.692C153.393 32.828 153.569 32.94 153.777 33.028C153.993 33.108 154.289 33.2 154.665 33.304C155.137 33.432 155.521 33.56 155.817 33.688C156.113 33.808 156.365 33.992 156.573 34.24C156.789 34.488 156.901 34.812 156.909 35.212C156.909 35.572 156.809 35.896 156.609 36.184C156.409 36.472 156.125 36.7 155.757 36.868C155.397 37.028 154.981 37.108 154.509 37.108ZM167.65 33.46C167.65 33.668 167.638 33.888 167.614 34.12H162.358C162.398 34.768 162.618 35.276 163.018 35.644C163.426 36.004 163.918 36.184 164.494 36.184C164.966 36.184 165.358 36.076 165.67 35.86C165.99 35.636 166.214 35.34 166.342 34.972H167.518C167.342 35.604 166.99 36.12 166.462 36.52C165.934 36.912 165.278 37.108 164.494 37.108C163.87 37.108 163.31 36.968 162.814 36.688C162.326 36.408 161.942 36.012 161.662 35.5C161.382 34.98 161.242 34.38 161.242 33.7C161.242 33.02 161.378 32.424 161.65 31.912C161.922 31.4 162.302 31.008 162.79 30.736C163.286 30.456 163.854 30.316 164.494 30.316C165.118 30.316 165.67 30.452 166.15 30.724C166.63 30.996 166.998 31.372 167.254 31.852C167.518 32.324 167.65 32.86 167.65 33.46ZM166.522 33.232C166.522 32.816 166.43 32.46 166.246 32.164C166.062 31.86 165.81 31.632 165.49 31.48C165.178 31.32 164.83 31.24 164.446 31.24C163.894 31.24 163.422 31.416 163.03 31.768C162.646 32.12 162.426 32.608 162.37 33.232H166.522ZM172.295 30.304C173.095 30.304 173.743 30.548 174.239 31.036C174.735 31.516 174.983 32.212 174.983 33.124V37H173.903V33.28C173.903 32.624 173.739 32.124 173.411 31.78C173.083 31.428 172.635 31.252 172.067 31.252C171.491 31.252 171.031 31.432 170.687 31.792C170.351 32.152 170.183 32.676 170.183 33.364V37H169.091V30.424H170.183V31.36C170.399 31.024 170.691 30.764 171.059 30.58C171.435 30.396 171.847 30.304 172.295 30.304ZM181.298 31.324V35.2C181.298 35.52 181.366 35.748 181.502 35.884C181.638 36.012 181.874 36.076 182.21 36.076H183.014V37H182.03C181.422 37 180.966 36.86 180.662 36.58C180.358 36.3 180.206 35.84 180.206 35.2V31.324H179.354V30.424H180.206V28.768H181.298V30.424H183.014V31.324H181.298ZM184.902 29.356C184.694 29.356 184.518 29.284 184.374 29.14C184.23 28.996 184.158 28.82 184.158 28.612C184.158 28.404 184.23 28.228 184.374 28.084C184.518 27.94 184.694 27.868 184.902 27.868C185.102 27.868 185.27 27.94 185.406 28.084C185.55 28.228 185.622 28.404 185.622 28.612C185.622 28.82 185.55 28.996 185.406 29.14C185.27 29.284 185.102 29.356 184.902 29.356ZM185.43 30.424V37H184.338V30.424H185.43ZM193.291 33.46C193.291 33.668 193.279 33.888 193.255 34.12H187.999C188.039 34.768 188.259 35.276 188.659 35.644C189.067 36.004 189.559 36.184 190.135 36.184C190.607 36.184 190.999 36.076 191.311 35.86C191.631 35.636 191.855 35.34 191.983 34.972H193.159C192.983 35.604 192.631 36.12 192.103 36.52C191.575 36.912 190.919 37.108 190.135 37.108C189.511 37.108 188.951 36.968 188.455 36.688C187.967 36.408 187.583 36.012 187.303 35.5C187.023 34.98 186.883 34.38 186.883 33.7C186.883 33.02 187.019 32.424 187.291 31.912C187.563 31.4 187.943 31.008 188.431 30.736C188.927 30.456 189.495 30.316 190.135 30.316C190.759 30.316 191.311 30.452 191.791 30.724C192.271 30.996 192.639 31.372 192.895 31.852C193.159 32.324 193.291 32.86 193.291 33.46ZM192.163 33.232C192.163 32.816 192.071 32.46 191.887 32.164C191.703 31.86 191.451 31.632 191.131 31.48C190.819 31.32 190.471 31.24 190.087 31.24C189.535 31.24 189.063 31.416 188.671 31.768C188.287 32.12 188.067 32.608 188.011 33.232H192.163ZM202.64 30.304C203.152 30.304 203.608 30.412 204.008 30.628C204.408 30.836 204.724 31.152 204.956 31.576C205.188 32 205.304 32.516 205.304 33.124V37H204.224V33.28C204.224 32.624 204.06 32.124 203.732 31.78C203.412 31.428 202.976 31.252 202.424 31.252C201.856 31.252 201.404 31.436 201.068 31.804C200.732 32.164 200.564 32.688 200.564 33.376V37H199.484V33.28C199.484 32.624 199.32 32.124 198.992 31.78C198.672 31.428 198.236 31.252 197.684 31.252C197.116 31.252 196.664 31.436 196.328 31.804C195.992 32.164 195.824 32.688 195.824 33.376V37H194.732V30.424H195.824V31.372C196.04 31.028 196.328 30.764 196.688 30.58C197.056 30.396 197.46 30.304 197.9 30.304C198.452 30.304 198.94 30.428 199.364 30.676C199.788 30.924 200.104 31.288 200.312 31.768C200.496 31.304 200.8 30.944 201.224 30.688C201.648 30.432 202.12 30.304 202.64 30.304ZM208.187 31.636C208.403 31.26 208.723 30.948 209.147 30.7C209.579 30.444 210.079 30.316 210.647 30.316C211.231 30.316 211.759 30.456 212.231 30.736C212.711 31.016 213.087 31.412 213.359 31.924C213.631 32.428 213.767 33.016 213.767 33.688C213.767 34.352 213.631 34.944 213.359 35.464C213.087 35.984 212.711 36.388 212.231 36.676C211.759 36.964 211.231 37.108 210.647 37.108C210.087 37.108 209.591 36.984 209.159 36.736C208.735 36.48 208.411 36.164 208.187 35.788V40.12H207.095V30.424H208.187V31.636ZM212.651 33.688C212.651 33.192 212.551 32.76 212.351 32.392C212.151 32.024 211.879 31.744 211.535 31.552C211.199 31.36 210.827 31.264 210.419 31.264C210.019 31.264 209.647 31.364 209.303 31.564C208.967 31.756 208.695 32.04 208.487 32.416C208.287 32.784 208.187 33.212 208.187 33.7C208.187 34.196 208.287 34.632 208.487 35.008C208.695 35.376 208.967 35.66 209.303 35.86C209.647 36.052 210.019 36.148 210.419 36.148C210.827 36.148 211.199 36.052 211.535 35.86C211.879 35.66 212.151 35.376 212.351 35.008C212.551 34.632 212.651 34.192 212.651 33.688ZM218.073 37.108C217.457 37.108 216.897 36.968 216.393 36.688C215.897 36.408 215.505 36.012 215.217 35.5C214.937 34.98 214.797 34.38 214.797 33.7C214.797 33.028 214.941 32.436 215.229 31.924C215.525 31.404 215.925 31.008 216.429 30.736C216.933 30.456 217.497 30.316 218.121 30.316C218.745 30.316 219.309 30.456 219.813 30.736C220.317 31.008 220.713 31.4 221.001 31.912C221.297 32.424 221.445 33.02 221.445 33.7C221.445 34.38 221.293 34.98 220.989 35.5C220.693 36.012 220.289 36.408 219.777 36.688C219.265 36.968 218.697 37.108 218.073 37.108ZM218.073 36.148C218.465 36.148 218.833 36.056 219.177 35.872C219.521 35.688 219.797 35.412 220.005 35.044C220.221 34.676 220.329 34.228 220.329 33.7C220.329 33.172 220.225 32.724 220.017 32.356C219.809 31.988 219.537 31.716 219.201 31.54C218.865 31.356 218.501 31.264 218.109 31.264C217.709 31.264 217.341 31.356 217.005 31.54C216.677 31.716 216.413 31.988 216.213 32.356C216.013 32.724 215.913 33.172 215.913 33.7C215.913 34.236 216.009 34.688 216.201 35.056C216.401 35.424 216.665 35.7 216.993 35.884C217.321 36.06 217.681 36.148 218.073 36.148ZM227.172 31.492C227.364 31.116 227.636 30.824 227.988 30.616C228.348 30.408 228.784 30.304 229.296 30.304V31.432H229.008C227.784 31.432 227.172 32.096 227.172 33.424V37H226.08V30.424H227.172V31.492ZM236.556 33.46C236.556 33.668 236.544 33.888 236.52 34.12H231.264C231.304 34.768 231.524 35.276 231.924 35.644C232.332 36.004 232.824 36.184 233.4 36.184C233.872 36.184 234.264 36.076 234.576 35.86C234.896 35.636 235.12 35.34 235.248 34.972H236.424C236.248 35.604 235.896 36.12 235.368 36.52C234.84 36.912 234.184 37.108 233.4 37.108C232.776 37.108 232.216 36.968 231.72 36.688C231.232 36.408 230.848 36.012 230.568 35.5C230.288 34.98 230.148 34.38 230.148 33.7C230.148 33.02 230.284 32.424 230.556 31.912C230.828 31.4 231.208 31.008 231.696 30.736C232.192 30.456 232.76 30.316 233.4 30.316C234.024 30.316 234.576 30.452 235.056 30.724C235.536 30.996 235.904 31.372 236.16 31.852C236.424 32.324 236.556 32.86 236.556 33.46ZM235.428 33.232C235.428 32.816 235.336 32.46 235.152 32.164C234.968 31.86 234.716 31.632 234.396 31.48C234.084 31.32 233.736 31.24 233.352 31.24C232.8 31.24 232.328 31.416 231.936 31.768C231.552 32.12 231.332 32.608 231.276 33.232H235.428ZM237.59 33.688C237.59 33.016 237.726 32.428 237.998 31.924C238.27 31.412 238.642 31.016 239.114 30.736C239.594 30.456 240.126 30.316 240.71 30.316C241.286 30.316 241.786 30.44 242.21 30.688C242.634 30.936 242.95 31.248 243.158 31.624V30.424H244.262V37H243.158V35.776C242.942 36.16 242.618 36.48 242.186 36.736C241.762 36.984 241.266 37.108 240.698 37.108C240.114 37.108 239.586 36.964 239.114 36.676C238.642 36.388 238.27 35.984 237.998 35.464C237.726 34.944 237.59 34.352 237.59 33.688ZM243.158 33.7C243.158 33.204 243.058 32.772 242.858 32.404C242.658 32.036 242.386 31.756 242.042 31.564C241.706 31.364 241.334 31.264 240.926 31.264C240.518 31.264 240.146 31.36 239.81 31.552C239.474 31.744 239.206 32.024 239.006 32.392C238.806 32.76 238.706 33.192 238.706 33.688C238.706 34.192 238.806 34.632 239.006 35.008C239.206 35.376 239.474 35.66 239.81 35.86C240.146 36.052 240.518 36.148 240.926 36.148C241.334 36.148 241.706 36.052 242.042 35.86C242.386 35.66 242.658 35.376 242.858 35.008C243.058 34.632 243.158 34.196 243.158 33.7ZM247.199 28.12V37H246.107V28.12H247.199ZM254.587 37.108C254.083 37.108 253.631 37.024 253.231 36.856C252.831 36.68 252.515 36.44 252.283 36.136C252.051 35.824 251.923 35.468 251.899 35.068H253.027C253.059 35.396 253.211 35.664 253.483 35.872C253.763 36.08 254.127 36.184 254.575 36.184C254.991 36.184 255.319 36.092 255.559 35.908C255.799 35.724 255.919 35.492 255.919 35.212C255.919 34.924 255.791 34.712 255.535 34.576C255.279 34.432 254.883 34.292 254.347 34.156C253.859 34.028 253.459 33.9 253.147 33.772C252.843 33.636 252.579 33.44 252.355 33.184C252.139 32.92 252.031 32.576 252.031 32.152C252.031 31.816 252.131 31.508 252.331 31.228C252.531 30.948 252.815 30.728 253.183 30.568C253.551 30.4 253.971 30.316 254.443 30.316C255.171 30.316 255.759 30.5 256.207 30.868C256.655 31.236 256.895 31.74 256.927 32.38H255.835C255.811 32.036 255.671 31.76 255.415 31.552C255.167 31.344 254.831 31.24 254.407 31.24C254.015 31.24 253.703 31.324 253.471 31.492C253.239 31.66 253.123 31.88 253.123 32.152C253.123 32.368 253.191 32.548 253.327 32.692C253.471 32.828 253.647 32.94 253.855 33.028C254.071 33.108 254.367 33.2 254.743 33.304C255.215 33.432 255.599 33.56 255.895 33.688C256.191 33.808 256.443 33.992 256.651 34.24C256.867 34.488 256.979 34.812 256.987 35.212C256.987 35.572 256.887 35.896 256.687 36.184C256.487 36.472 256.203 36.7 255.835 36.868C255.475 37.028 255.059 37.108 254.587 37.108ZM261.397 37.108C260.781 37.108 260.221 36.968 259.717 36.688C259.221 36.408 258.829 36.012 258.541 35.5C258.261 34.98 258.121 34.38 258.121 33.7C258.121 33.028 258.265 32.436 258.553 31.924C258.849 31.404 259.249 31.008 259.753 30.736C260.257 30.456 260.821 30.316 261.445 30.316C262.069 30.316 262.633 30.456 263.137 30.736C263.641 31.008 264.037 31.4 264.325 31.912C264.621 32.424 264.769 33.02 264.769 33.7C264.769 34.38 264.617 34.98 264.313 35.5C264.017 36.012 263.613 36.408 263.101 36.688C262.589 36.968 262.021 37.108 261.397 37.108ZM261.397 36.148C261.789 36.148 262.157 36.056 262.501 35.872C262.845 35.688 263.121 35.412 263.329 35.044C263.545 34.676 263.653 34.228 263.653 33.7C263.653 33.172 263.549 32.724 263.341 32.356C263.133 31.988 262.861 31.716 262.525 31.54C262.189 31.356 261.825 31.264 261.433 31.264C261.033 31.264 260.665 31.356 260.329 31.54C260.001 31.716 259.737 31.988 259.537 32.356C259.337 32.724 259.237 33.172 259.237 33.7C259.237 34.236 259.333 34.688 259.525 35.056C259.725 35.424 259.989 35.7 260.317 35.884C260.645 36.06 261.005 36.148 261.397 36.148ZM267.297 31.648C267.521 31.256 267.849 30.936 268.281 30.688C268.713 30.44 269.205 30.316 269.757 30.316C270.349 30.316 270.881 30.456 271.353 30.736C271.825 31.016 272.197 31.412 272.469 31.924C272.741 32.428 272.877 33.016 272.877 33.688C272.877 34.352 272.741 34.944 272.469 35.464C272.197 35.984 271.821 36.388 271.341 36.676C270.869 36.964 270.341 37.108 269.757 37.108C269.189 37.108 268.689 36.984 268.257 36.736C267.833 36.488 267.513 36.172 267.297 35.788V37H266.205V28.12H267.297V31.648ZM271.761 33.688C271.761 33.192 271.661 32.76 271.461 32.392C271.261 32.024 270.989 31.744 270.645 31.552C270.309 31.36 269.937 31.264 269.529 31.264C269.129 31.264 268.757 31.364 268.413 31.564C268.077 31.756 267.805 32.04 267.597 32.416C267.397 32.784 267.297 33.212 267.297 33.7C267.297 34.196 267.397 34.632 267.597 35.008C267.805 35.376 268.077 35.66 268.413 35.86C268.757 36.052 269.129 36.148 269.529 36.148C269.937 36.148 270.309 36.052 270.645 35.86C270.989 35.66 271.261 35.376 271.461 35.008C271.661 34.632 271.761 34.192 271.761 33.688ZM275.406 31.492C275.598 31.116 275.87 30.824 276.222 30.616C276.582 30.408 277.018 30.304 277.53 30.304V31.432H277.242C276.018 31.432 275.406 32.096 275.406 33.424V37H274.314V30.424H275.406V31.492ZM284.791 33.46C284.791 33.668 284.779 33.888 284.755 34.12H279.499C279.539 34.768 279.759 35.276 280.159 35.644C280.567 36.004 281.059 36.184 281.635 36.184C282.107 36.184 282.499 36.076 282.811 35.86C283.131 35.636 283.355 35.34 283.483 34.972H284.659C284.483 35.604 284.131 36.12 283.603 36.52C283.075 36.912 282.419 37.108 281.635 37.108C281.011 37.108 280.451 36.968 279.955 36.688C279.467 36.408 279.083 36.012 278.803 35.5C278.523 34.98 278.383 34.38 278.383 33.7C278.383 33.02 278.519 32.424 278.791 31.912C279.063 31.4 279.443 31.008 279.931 30.736C280.427 30.456 280.995 30.316 281.635 30.316C282.259 30.316 282.811 30.452 283.291 30.724C283.771 30.996 284.139 31.372 284.395 31.852C284.659 32.324 284.791 32.86 284.791 33.46ZM283.663 33.232C283.663 32.816 283.571 32.46 283.387 32.164C283.203 31.86 282.951 31.632 282.631 31.48C282.319 31.32 281.971 31.24 281.587 31.24C281.035 31.24 280.563 31.416 280.171 31.768C279.787 32.12 279.567 32.608 279.511 33.232H283.663ZM290.523 28.12V37H289.431V28.12H290.523ZM291.976 33.688C291.976 33.016 292.112 32.428 292.384 31.924C292.656 31.412 293.028 31.016 293.5 30.736C293.98 30.456 294.512 30.316 295.096 30.316C295.672 30.316 296.172 30.44 296.596 30.688C297.02 30.936 297.336 31.248 297.544 31.624V30.424H298.648V37H297.544V35.776C297.328 36.16 297.004 36.48 296.572 36.736C296.148 36.984 295.652 37.108 295.084 37.108C294.5 37.108 293.972 36.964 293.5 36.676C293.028 36.388 292.656 35.984 292.384 35.464C292.112 34.944 291.976 34.352 291.976 33.688ZM297.544 33.7C297.544 33.204 297.444 32.772 297.244 32.404C297.044 32.036 296.772 31.756 296.428 31.564C296.092 31.364 295.72 31.264 295.312 31.264C294.904 31.264 294.532 31.36 294.196 31.552C293.86 31.744 293.592 32.024 293.392 32.392C293.192 32.76 293.092 33.192 293.092 33.688C293.092 34.192 293.192 34.632 293.392 35.008C293.592 35.376 293.86 35.66 294.196 35.86C294.532 36.052 294.904 36.148 295.312 36.148C295.72 36.148 296.092 36.052 296.428 35.86C296.772 35.66 297.044 35.376 297.244 35.008C297.444 34.632 297.544 34.196 297.544 33.7ZM302.822 37.108C302.318 37.108 301.866 37.024 301.466 36.856C301.066 36.68 300.75 36.44 300.518 36.136C300.286 35.824 300.158 35.468 300.134 35.068H301.262C301.294 35.396 301.446 35.664 301.718 35.872C301.998 36.08 302.362 36.184 302.81 36.184C303.226 36.184 303.554 36.092 303.794 35.908C304.034 35.724 304.154 35.492 304.154 35.212C304.154 34.924 304.026 34.712 303.77 34.576C303.514 34.432 303.118 34.292 302.582 34.156C302.094 34.028 301.694 33.9 301.382 33.772C301.078 33.636 300.814 33.44 300.59 33.184C300.374 32.92 300.266 32.576 300.266 32.152C300.266 31.816 300.366 31.508 300.566 31.228C300.766 30.948 301.05 30.728 301.418 30.568C301.786 30.4 302.206 30.316 302.678 30.316C303.406 30.316 303.994 30.5 304.442 30.868C304.89 31.236 305.13 31.74 305.162 32.38H304.07C304.046 32.036 303.906 31.76 303.65 31.552C303.402 31.344 303.066 31.24 302.642 31.24C302.25 31.24 301.938 31.324 301.706 31.492C301.474 31.66 301.358 31.88 301.358 32.152C301.358 32.368 301.426 32.548 301.562 32.692C301.706 32.828 301.882 32.94 302.09 33.028C302.306 33.108 302.602 33.2 302.978 33.304C303.45 33.432 303.834 33.56 304.13 33.688C304.426 33.808 304.678 33.992 304.886 34.24C305.102 34.488 305.214 34.812 305.222 35.212C305.222 35.572 305.122 35.896 304.922 36.184C304.722 36.472 304.438 36.7 304.07 36.868C303.71 37.028 303.294 37.108 302.822 37.108ZM317.871 30.304C318.383 30.304 318.839 30.412 319.239 30.628C319.639 30.836 319.955 31.152 320.187 31.576C320.419 32 320.535 32.516 320.535 33.124V37H319.455V33.28C319.455 32.624 319.291 32.124 318.963 31.78C318.643 31.428 318.207 31.252 317.655 31.252C317.087 31.252 316.635 31.436 316.299 31.804C315.963 32.164 315.795 32.688 315.795 33.376V37H314.715V33.28C314.715 32.624 314.551 32.124 314.223 31.78C313.903 31.428 313.467 31.252 312.915 31.252C312.347 31.252 311.895 31.436 311.559 31.804C311.223 32.164 311.055 32.688 311.055 33.376V37H309.963V30.424H311.055V31.372C311.271 31.028 311.559 30.764 311.919 30.58C312.287 30.396 312.691 30.304 313.131 30.304C313.683 30.304 314.171 30.428 314.595 30.676C315.019 30.924 315.335 31.288 315.543 31.768C315.727 31.304 316.031 30.944 316.455 30.688C316.879 30.432 317.351 30.304 317.871 30.304ZM328.326 33.46C328.326 33.668 328.314 33.888 328.29 34.12H323.034C323.074 34.768 323.294 35.276 323.694 35.644C324.102 36.004 324.594 36.184 325.17 36.184C325.642 36.184 326.034 36.076 326.346 35.86C326.666 35.636 326.89 35.34 327.018 34.972H328.194C328.018 35.604 327.666 36.12 327.138 36.52C326.61 36.912 325.954 37.108 325.17 37.108C324.546 37.108 323.986 36.968 323.49 36.688C323.002 36.408 322.618 36.012 322.338 35.5C322.058 34.98 321.918 34.38 321.918 33.7C321.918 33.02 322.054 32.424 322.326 31.912C322.598 31.4 322.978 31.008 323.466 30.736C323.962 30.456 324.53 30.316 325.17 30.316C325.794 30.316 326.346 30.452 326.826 30.724C327.306 30.996 327.674 31.372 327.93 31.852C328.194 32.324 328.326 32.86 328.326 33.46ZM327.198 33.232C327.198 32.816 327.106 32.46 326.922 32.164C326.738 31.86 326.486 31.632 326.166 31.48C325.854 31.32 325.506 31.24 325.122 31.24C324.57 31.24 324.098 31.416 323.706 31.768C323.322 32.12 323.102 32.608 323.046 33.232H327.198ZM329.359 33.688C329.359 33.016 329.495 32.428 329.767 31.924C330.039 31.412 330.411 31.016 330.883 30.736C331.363 30.456 331.899 30.316 332.491 30.316C333.003 30.316 333.479 30.436 333.919 30.676C334.359 30.908 334.695 31.216 334.927 31.6V28.12H336.031V37H334.927V35.764C334.711 36.156 334.391 36.48 333.967 36.736C333.543 36.984 333.047 37.108 332.479 37.108C331.895 37.108 331.363 36.964 330.883 36.676C330.411 36.388 330.039 35.984 329.767 35.464C329.495 34.944 329.359 34.352 329.359 33.688ZM334.927 33.7C334.927 33.204 334.827 32.772 334.627 32.404C334.427 32.036 334.155 31.756 333.811 31.564C333.475 31.364 333.103 31.264 332.695 31.264C332.287 31.264 331.915 31.36 331.579 31.552C331.243 31.744 330.975 32.024 330.775 32.392C330.575 32.76 330.475 33.192 330.475 33.688C330.475 34.192 330.575 34.632 330.775 35.008C330.975 35.376 331.243 35.66 331.579 35.86C331.915 36.052 332.287 36.148 332.695 36.148C333.103 36.148 333.475 36.052 333.811 35.86C334.155 35.66 334.427 35.376 334.627 35.008C334.827 34.632 334.927 34.196 334.927 33.7ZM338.441 29.356C338.233 29.356 338.057 29.284 337.913 29.14C337.769 28.996 337.697 28.82 337.697 28.612C337.697 28.404 337.769 28.228 337.913 28.084C338.057 27.94 338.233 27.868 338.441 27.868C338.641 27.868 338.809 27.94 338.945 28.084C339.089 28.228 339.161 28.404 339.161 28.612C339.161 28.82 339.089 28.996 338.945 29.14C338.809 29.284 338.641 29.356 338.441 29.356ZM338.969 30.424V37H337.877V30.424H338.969ZM340.422 33.7C340.422 33.02 340.558 32.428 340.83 31.924C341.102 31.412 341.478 31.016 341.958 30.736C342.446 30.456 343.002 30.316 343.626 30.316C344.434 30.316 345.098 30.512 345.618 30.904C346.146 31.296 346.494 31.84 346.662 32.536H345.486C345.374 32.136 345.154 31.82 344.826 31.588C344.506 31.356 344.106 31.24 343.626 31.24C343.002 31.24 342.498 31.456 342.114 31.888C341.73 32.312 341.538 32.916 341.538 33.7C341.538 34.492 341.73 35.104 342.114 35.536C342.498 35.968 343.002 36.184 343.626 36.184C344.106 36.184 344.506 36.072 344.826 35.848C345.146 35.624 345.366 35.304 345.486 34.888H346.662C346.486 35.56 346.134 36.1 345.606 36.508C345.078 36.908 344.418 37.108 343.626 37.108C343.002 37.108 342.446 36.968 341.958 36.688C341.478 36.408 341.102 36.012 340.83 35.5C340.558 34.988 340.422 34.388 340.422 33.7ZM348.683 29.356C348.475 29.356 348.299 29.284 348.155 29.14C348.011 28.996 347.939 28.82 347.939 28.612C347.939 28.404 348.011 28.228 348.155 28.084C348.299 27.94 348.475 27.868 348.683 27.868C348.883 27.868 349.051 27.94 349.187 28.084C349.331 28.228 349.403 28.404 349.403 28.612C349.403 28.82 349.331 28.996 349.187 29.14C349.051 29.284 348.883 29.356 348.683 29.356ZM349.211 30.424V37H348.119V30.424H349.211ZM353.94 37.108C353.324 37.108 352.764 36.968 352.26 36.688C351.764 36.408 351.372 36.012 351.084 35.5C350.804 34.98 350.664 34.38 350.664 33.7C350.664 33.028 350.808 32.436 351.096 31.924C351.392 31.404 351.792 31.008 352.296 30.736C352.8 30.456 353.364 30.316 353.988 30.316C354.612 30.316 355.176 30.456 355.68 30.736C356.184 31.008 356.58 31.4 356.868 31.912C357.164 32.424 357.312 33.02 357.312 33.7C357.312 34.38 357.16 34.98 356.856 35.5C356.56 36.012 356.156 36.408 355.644 36.688C355.132 36.968 354.564 37.108 353.94 37.108ZM353.94 36.148C354.332 36.148 354.7 36.056 355.044 35.872C355.388 35.688 355.664 35.412 355.872 35.044C356.088 34.676 356.196 34.228 356.196 33.7C356.196 33.172 356.092 32.724 355.884 32.356C355.676 31.988 355.404 31.716 355.068 31.54C354.732 31.356 354.368 31.264 353.976 31.264C353.576 31.264 353.208 31.356 352.872 31.54C352.544 31.716 352.28 31.988 352.08 32.356C351.88 32.724 351.78 33.172 351.78 33.7C351.78 34.236 351.876 34.688 352.068 35.056C352.268 35.424 352.532 35.7 352.86 35.884C353.188 36.06 353.548 36.148 353.94 36.148ZM361.952 30.304C362.752 30.304 363.4 30.548 363.896 31.036C364.392 31.516 364.64 32.212 364.64 33.124V37H363.56V33.28C363.56 32.624 363.396 32.124 363.068 31.78C362.74 31.428 362.292 31.252 361.724 31.252C361.148 31.252 360.688 31.432 360.344 31.792C360.008 32.152 359.84 32.676 359.84 33.364V37H358.748V30.424H359.84V31.36C360.056 31.024 360.348 30.764 360.716 30.58C361.092 30.396 361.504 30.304 361.952 30.304ZM372.424 33.46C372.424 33.668 372.412 33.888 372.388 34.12H367.132C367.172 34.768 367.392 35.276 367.792 35.644C368.2 36.004 368.692 36.184 369.268 36.184C369.74 36.184 370.132 36.076 370.444 35.86C370.764 35.636 370.988 35.34 371.116 34.972H372.292C372.116 35.604 371.764 36.12 371.236 36.52C370.708 36.912 370.052 37.108 369.268 37.108C368.644 37.108 368.084 36.968 367.588 36.688C367.1 36.408 366.716 36.012 366.436 35.5C366.156 34.98 366.016 34.38 366.016 33.7C366.016 33.02 366.152 32.424 366.424 31.912C366.696 31.4 367.076 31.008 367.564 30.736C368.06 30.456 368.628 30.316 369.268 30.316C369.892 30.316 370.444 30.452 370.924 30.724C371.404 30.996 371.772 31.372 372.028 31.852C372.292 32.324 372.424 32.86 372.424 33.46ZM371.296 33.232C371.296 32.816 371.204 32.46 371.02 32.164C370.836 31.86 370.584 31.632 370.264 31.48C369.952 31.32 369.604 31.24 369.22 31.24C368.668 31.24 368.196 31.416 367.804 31.768C367.42 32.12 367.2 32.608 367.144 33.232H371.296ZM376.193 37.108C375.689 37.108 375.237 37.024 374.837 36.856C374.437 36.68 374.121 36.44 373.889 36.136C373.657 35.824 373.529 35.468 373.505 35.068H374.633C374.665 35.396 374.817 35.664 375.089 35.872C375.369 36.08 375.733 36.184 376.181 36.184C376.597 36.184 376.925 36.092 377.165 35.908C377.405 35.724 377.525 35.492 377.525 35.212C377.525 34.924 377.397 34.712 377.141 34.576C376.885 34.432 376.489 34.292 375.953 34.156C375.465 34.028 375.065 33.9 374.753 33.772C374.449 33.636 374.185 33.44 373.961 33.184C373.745 32.92 373.637 32.576 373.637 32.152C373.637 31.816 373.737 31.508 373.937 31.228C374.137 30.948 374.421 30.728 374.789 30.568C375.157 30.4 375.577 30.316 376.049 30.316C376.777 30.316 377.365 30.5 377.813 30.868C378.261 31.236 378.501 31.74 378.533 32.38H377.441C377.417 32.036 377.277 31.76 377.021 31.552C376.773 31.344 376.437 31.24 376.013 31.24C375.621 31.24 375.309 31.324 375.077 31.492C374.845 31.66 374.729 31.88 374.729 32.152C374.729 32.368 374.797 32.548 374.933 32.692C375.077 32.828 375.253 32.94 375.461 33.028C375.677 33.108 375.973 33.2 376.349 33.304C376.821 33.432 377.205 33.56 377.501 33.688C377.797 33.808 378.049 33.992 378.257 34.24C378.473 34.488 378.585 34.812 378.593 35.212C378.593 35.572 378.493 35.896 378.293 36.184C378.093 36.472 377.809 36.7 377.441 36.868C377.081 37.028 376.665 37.108 376.193 37.108Z" fill="white"/>
<path d="M43.0438 15H41.4478L36.6458 7.734V15H35.0498V5.256H36.6458L41.4478 12.508V5.256H43.0438V15ZM48.4856 15.126C47.7576 15.126 47.0996 14.9627 46.5116 14.636C45.9236 14.3 45.4616 13.8333 45.1256 13.236C44.7896 12.6293 44.6216 11.9293 44.6216 11.136C44.6216 10.352 44.7943 9.65667 45.1396 9.05C45.4849 8.44333 45.9563 7.97667 46.5536 7.65C47.1509 7.32333 47.8183 7.16 48.5556 7.16C49.2929 7.16 49.9603 7.32333 50.5576 7.65C51.1549 7.97667 51.6263 8.44333 51.9716 9.05C52.3169 9.65667 52.4896 10.352 52.4896 11.136C52.4896 11.92 52.3123 12.6153 51.9576 13.222C51.6029 13.8287 51.1176 14.3 50.5016 14.636C49.8949 14.9627 49.2229 15.126 48.4856 15.126ZM48.4856 13.74C48.8963 13.74 49.2789 13.642 49.6336 13.446C49.9976 13.25 50.2916 12.956 50.5156 12.564C50.7396 12.172 50.8516 11.696 50.8516 11.136C50.8516 10.576 50.7443 10.1047 50.5296 9.722C50.3149 9.33 50.0303 9.036 49.6756 8.84C49.3209 8.644 48.9383 8.546 48.5276 8.546C48.1169 8.546 47.7343 8.644 47.3796 8.84C47.0343 9.036 46.7589 9.33 46.5536 9.722C46.3483 10.1047 46.2456 10.576 46.2456 11.136C46.2456 11.9667 46.4556 12.6107 46.8756 13.068C47.3049 13.516 47.8416 13.74 48.4856 13.74ZM55.9293 8.588V12.858C55.9293 13.1473 55.9947 13.3573 56.1253 13.488C56.2653 13.6093 56.4987 13.67 56.8253 13.67H57.8053V15H56.5453C55.8267 15 55.276 14.832 54.8933 14.496C54.5107 14.16 54.3193 13.614 54.3193 12.858V8.588H53.4093V7.286H54.3193V5.368H55.9293V7.286H57.8053V8.588H55.9293ZM60.0883 6.264C59.799 6.264 59.5563 6.166 59.3603 5.97C59.1643 5.774 59.0663 5.53133 59.0663 5.242C59.0663 4.95267 59.1643 4.71 59.3603 4.514C59.5563 4.318 59.799 4.22 60.0883 4.22C60.3683 4.22 60.6063 4.318 60.8023 4.514C60.9983 4.71 61.0963 4.95267 61.0963 5.242C61.0963 5.53133 60.9983 5.774 60.8023 5.97C60.6063 6.166 60.3683 6.264 60.0883 6.264ZM60.8723 7.286V15H59.2763V7.286H60.8723ZM66.2017 8.588H64.7737V15H63.1637V8.588H62.2537V7.286H63.1637V6.74C63.1637 5.85333 63.3971 5.20933 63.8637 4.808C64.3397 4.39733 65.0817 4.192 66.0897 4.192V5.522C65.6044 5.522 65.2637 5.61533 65.0677 5.802C64.8717 5.97933 64.7737 6.292 64.7737 6.74V7.286H66.2017V8.588ZM68.4282 6.264C68.1388 6.264 67.8962 6.166 67.7002 5.97C67.5042 5.774 67.4062 5.53133 67.4062 5.242C67.4062 4.95267 67.5042 4.71 67.7002 4.514C67.8962 4.318 68.1388 4.22 68.4282 4.22C68.7082 4.22 68.9462 4.318 69.1422 4.514C69.3382 4.71 69.4362 4.95267 69.4362 5.242C69.4362 5.53133 69.3382 5.774 69.1422 5.97C68.9462 6.166 68.7082 6.264 68.4282 6.264ZM69.2122 7.286V15H67.6162V7.286H69.2122ZM70.7756 11.136C70.7756 10.3427 70.9342 9.64733 71.2516 9.05C71.5782 8.44333 72.0262 7.97667 72.5956 7.65C73.1649 7.32333 73.8182 7.16 74.5556 7.16C75.4889 7.16 76.2589 7.384 76.8656 7.832C77.4816 8.27067 77.8969 8.90067 78.1116 9.722H76.3896C76.2496 9.33933 76.0256 9.04067 75.7176 8.826C75.4096 8.61133 75.0222 8.504 74.5556 8.504C73.9022 8.504 73.3796 8.73733 72.9876 9.204C72.6049 9.66133 72.4136 10.3053 72.4136 11.136C72.4136 11.9667 72.6049 12.6153 72.9876 13.082C73.3796 13.5487 73.9022 13.782 74.5556 13.782C75.4796 13.782 76.0909 13.376 76.3896 12.564H78.1116C77.8876 13.348 77.4676 13.9733 76.8516 14.44C76.2356 14.8973 75.4702 15.126 74.5556 15.126C73.8182 15.126 73.1649 14.9627 72.5956 14.636C72.0262 14.3 71.5782 13.8333 71.2516 13.236C70.9342 12.6293 70.7756 11.9293 70.7756 11.136ZM79.1701 11.108C79.1701 10.3333 79.3288 9.64733 79.6461 9.05C79.9728 8.45267 80.4114 7.99067 80.9621 7.664C81.5221 7.328 82.1381 7.16 82.8101 7.16C83.4168 7.16 83.9441 7.28133 84.3921 7.524C84.8494 7.75733 85.2134 8.05133 85.4841 8.406V7.286H87.0941V15H85.4841V13.852C85.2134 14.216 84.8448 14.5193 84.3781 14.762C83.9114 15.0047 83.3794 15.126 82.7821 15.126C82.1194 15.126 81.5128 14.958 80.9621 14.622C80.4114 14.2767 79.9728 13.8007 79.6461 13.194C79.3288 12.578 79.1701 11.8827 79.1701 11.108ZM85.4841 11.136C85.4841 10.604 85.3721 10.142 85.1481 9.75C84.9334 9.358 84.6488 9.05933 84.2941 8.854C83.9394 8.64867 83.5568 8.546 83.1461 8.546C82.7354 8.546 82.3528 8.64867 81.9981 8.854C81.6434 9.05 81.3541 9.344 81.1301 9.736C80.9154 10.1187 80.8081 10.576 80.8081 11.108C80.8081 11.64 80.9154 12.1067 81.1301 12.508C81.3541 12.9093 81.6434 13.2173 81.9981 13.432C82.3621 13.6373 82.7448 13.74 83.1461 13.74C83.5568 13.74 83.9394 13.6373 84.2941 13.432C84.6488 13.2267 84.9334 12.928 85.1481 12.536C85.3721 12.1347 85.4841 11.668 85.4841 11.136ZM88.6584 11.136C88.6584 10.3427 88.817 9.64733 89.1344 9.05C89.461 8.44333 89.909 7.97667 90.4784 7.65C91.0477 7.32333 91.701 7.16 92.4384 7.16C93.3717 7.16 94.1417 7.384 94.7484 7.832C95.3644 8.27067 95.7797 8.90067 95.9944 9.722H94.2724C94.1324 9.33933 93.9084 9.04067 93.6004 8.826C93.2924 8.61133 92.905 8.504 92.4384 8.504C91.785 8.504 91.2624 8.73733 90.8704 9.204C90.4877 9.66133 90.2964 10.3053 90.2964 11.136C90.2964 11.9667 90.4877 12.6153 90.8704 13.082C91.2624 13.5487 91.785 13.782 92.4384 13.782C93.3624 13.782 93.9737 13.376 94.2724 12.564H95.9944C95.7704 13.348 95.3504 13.9733 94.7344 14.44C94.1184 14.8973 93.353 15.126 92.4384 15.126C91.701 15.126 91.0477 14.9627 90.4784 14.636C89.909 14.3 89.461 13.8333 89.1344 13.236C88.817 12.6293 88.6584 11.9293 88.6584 11.136ZM98.3969 6.264C98.1076 6.264 97.8649 6.166 97.6689 5.97C97.4729 5.774 97.3749 5.53133 97.3749 5.242C97.3749 4.95267 97.4729 4.71 97.6689 4.514C97.8649 4.318 98.1076 4.22 98.3969 4.22C98.6769 4.22 98.9149 4.318 99.1109 4.514C99.3069 4.71 99.4049 4.95267 99.4049 5.242C99.4049 5.53133 99.3069 5.774 99.1109 5.97C98.9149 6.166 98.6769 6.264 98.3969 6.264ZM99.1809 7.286V15H97.5849V7.286H99.1809ZM104.622 15.126C103.894 15.126 103.236 14.9627 102.648 14.636C102.06 14.3 101.598 13.8333 101.262 13.236C100.926 12.6293 100.758 11.9293 100.758 11.136C100.758 10.352 100.931 9.65667 101.276 9.05C101.622 8.44333 102.093 7.97667 102.69 7.65C103.288 7.32333 103.955 7.16 104.692 7.16C105.43 7.16 106.097 7.32333 106.694 7.65C107.292 7.97667 107.763 8.44333 108.108 9.05C108.454 9.65667 108.626 10.352 108.626 11.136C108.626 11.92 108.449 12.6153 108.094 13.222C107.74 13.8287 107.254 14.3 106.638 14.636C106.032 14.9627 105.36 15.126 104.622 15.126ZM104.622 13.74C105.033 13.74 105.416 13.642 105.77 13.446C106.134 13.25 106.428 12.956 106.652 12.564C106.876 12.172 106.988 11.696 106.988 11.136C106.988 10.576 106.881 10.1047 106.666 9.722C106.452 9.33 106.167 9.036 105.812 8.84C105.458 8.644 105.075 8.546 104.664 8.546C104.254 8.546 103.871 8.644 103.516 8.84C103.171 9.036 102.896 9.33 102.69 9.722C102.485 10.1047 102.382 10.576 102.382 11.136C102.382 11.9667 102.592 12.6107 103.012 13.068C103.442 13.516 103.978 13.74 104.622 13.74ZM114.096 7.16C114.703 7.16 115.244 7.286 115.72 7.538C116.205 7.79 116.583 8.16333 116.854 8.658C117.125 9.15267 117.26 9.75 117.26 10.45V15H115.678V10.688C115.678 9.99733 115.505 9.47 115.16 9.106C114.815 8.73267 114.343 8.546 113.746 8.546C113.149 8.546 112.673 8.73267 112.318 9.106C111.973 9.47 111.8 9.99733 111.8 10.688V15H110.204V7.286H111.8V8.168C112.061 7.85067 112.393 7.60333 112.794 7.426C113.205 7.24867 113.639 7.16 114.096 7.16ZM126.366 10.954C126.366 11.2433 126.347 11.5047 126.31 11.738H120.416C120.463 12.354 120.691 12.8487 121.102 13.222C121.513 13.5953 122.017 13.782 122.614 13.782C123.473 13.782 124.079 13.4227 124.434 12.704H126.156C125.923 13.4133 125.498 13.9967 124.882 14.454C124.275 14.902 123.519 15.126 122.614 15.126C121.877 15.126 121.214 14.9627 120.626 14.636C120.047 14.3 119.59 13.8333 119.254 13.236C118.927 12.6293 118.764 11.9293 118.764 11.136C118.764 10.3427 118.923 9.64733 119.24 9.05C119.567 8.44333 120.019 7.97667 120.598 7.65C121.186 7.32333 121.858 7.16 122.614 7.16C123.342 7.16 123.991 7.31867 124.56 7.636C125.129 7.95333 125.573 8.40133 125.89 8.98C126.207 9.54933 126.366 10.2073 126.366 10.954ZM124.7 10.45C124.691 9.862 124.481 9.39067 124.07 9.036C123.659 8.68133 123.151 8.504 122.544 8.504C121.993 8.504 121.522 8.68133 121.13 9.036C120.738 9.38133 120.505 9.85267 120.43 10.45H124.7ZM130.736 15.126C130.13 15.126 129.584 15.0187 129.098 14.804C128.622 14.58 128.244 14.2813 127.964 13.908C127.684 13.5253 127.535 13.1007 127.516 12.634H129.168C129.196 12.9607 129.35 13.236 129.63 13.46C129.92 13.6747 130.279 13.782 130.708 13.782C131.156 13.782 131.502 13.698 131.744 13.53C131.996 13.3527 132.122 13.1287 132.122 12.858C132.122 12.5687 131.982 12.354 131.702 12.214C131.432 12.074 130.998 11.92 130.4 11.752C129.822 11.5933 129.35 11.4393 128.986 11.29C128.622 11.1407 128.305 10.912 128.034 10.604C127.773 10.296 127.642 9.89 127.642 9.386C127.642 8.97533 127.764 8.602 128.006 8.266C128.249 7.92067 128.594 7.65 129.042 7.454C129.5 7.258 130.022 7.16 130.61 7.16C131.488 7.16 132.192 7.384 132.724 7.832C133.266 8.27067 133.555 8.87267 133.592 9.638H131.996C131.968 9.29267 131.828 9.01733 131.576 8.812C131.324 8.60667 130.984 8.504 130.554 8.504C130.134 8.504 129.812 8.58333 129.588 8.742C129.364 8.90067 129.252 9.11067 129.252 9.372C129.252 9.57733 129.327 9.75 129.476 9.89C129.626 10.03 129.808 10.142 130.022 10.226C130.237 10.3007 130.554 10.3987 130.974 10.52C131.534 10.6693 131.992 10.8233 132.346 10.982C132.71 11.1313 133.023 11.3553 133.284 11.654C133.546 11.9527 133.681 12.3493 133.69 12.844C133.69 13.2827 133.569 13.6747 133.326 14.02C133.084 14.3653 132.738 14.636 132.29 14.832C131.852 15.028 131.334 15.126 130.736 15.126ZM146.122 10.954C146.122 11.2433 146.103 11.5047 146.066 11.738H140.172C140.218 12.354 140.447 12.8487 140.858 13.222C141.268 13.5953 141.772 13.782 142.37 13.782C143.228 13.782 143.835 13.4227 144.19 12.704H145.912C145.678 13.4133 145.254 13.9967 144.638 14.454C144.031 14.902 143.275 15.126 142.37 15.126C141.632 15.126 140.97 14.9627 140.382 14.636C139.803 14.3 139.346 13.8333 139.01 13.236C138.683 12.6293 138.52 11.9293 138.52 11.136C138.52 10.3427 138.678 9.64733 138.996 9.05C139.322 8.44333 139.775 7.97667 140.354 7.65C140.942 7.32333 141.614 7.16 142.37 7.16C143.098 7.16 143.746 7.31867 144.316 7.636C144.885 7.95333 145.328 8.40133 145.646 8.98C145.963 9.54933 146.122 10.2073 146.122 10.954ZM144.456 10.45C144.446 9.862 144.236 9.39067 143.826 9.036C143.415 8.68133 142.906 8.504 142.3 8.504C141.749 8.504 141.278 8.68133 140.886 9.036C140.494 9.38133 140.26 9.85267 140.186 10.45H144.456ZM151.584 7.16C152.191 7.16 152.732 7.286 153.208 7.538C153.694 7.79 154.072 8.16333 154.342 8.658C154.613 9.15267 154.748 9.75 154.748 10.45V15H153.166V10.688C153.166 9.99733 152.994 9.47 152.648 9.106C152.303 8.73267 151.832 8.546 151.234 8.546C150.637 8.546 150.161 8.73267 149.806 9.106C149.461 9.47 149.288 9.99733 149.288 10.688V15H147.692V7.286H149.288V8.168C149.55 7.85067 149.881 7.60333 150.282 7.426C150.693 7.24867 151.127 7.16 151.584 7.16ZM162.283 8.588V12.858C162.283 13.1473 162.348 13.3573 162.479 13.488C162.619 13.6093 162.852 13.67 163.179 13.67H164.159V15H162.899C162.18 15 161.63 14.832 161.247 14.496C160.864 14.16 160.673 13.614 160.673 12.858V8.588H159.763V7.286H160.673V5.368H162.283V7.286H164.159V8.588H162.283ZM166.442 6.264C166.153 6.264 165.91 6.166 165.714 5.97C165.518 5.774 165.42 5.53133 165.42 5.242C165.42 4.95267 165.518 4.71 165.714 4.514C165.91 4.318 166.153 4.22 166.442 4.22C166.722 4.22 166.96 4.318 167.156 4.514C167.352 4.71 167.45 4.95267 167.45 5.242C167.45 5.53133 167.352 5.774 167.156 5.97C166.96 6.166 166.722 6.264 166.442 6.264ZM167.226 7.286V15H165.63V7.286H167.226ZM176.391 10.954C176.391 11.2433 176.373 11.5047 176.335 11.738H170.441C170.488 12.354 170.717 12.8487 171.127 13.222C171.538 13.5953 172.042 13.782 172.639 13.782C173.498 13.782 174.105 13.4227 174.459 12.704H176.181C175.948 13.4133 175.523 13.9967 174.907 14.454C174.301 14.902 173.545 15.126 172.639 15.126C171.902 15.126 171.239 14.9627 170.651 14.636C170.073 14.3 169.615 13.8333 169.279 13.236C168.953 12.6293 168.789 11.9293 168.789 11.136C168.789 10.3427 168.948 9.64733 169.265 9.05C169.592 8.44333 170.045 7.97667 170.623 7.65C171.211 7.32333 171.883 7.16 172.639 7.16C173.367 7.16 174.016 7.31867 174.585 7.636C175.155 7.95333 175.598 8.40133 175.915 8.98C176.233 9.54933 176.391 10.2073 176.391 10.954ZM174.725 10.45C174.716 9.862 174.506 9.39067 174.095 9.036C173.685 8.68133 173.176 8.504 172.569 8.504C172.019 8.504 171.547 8.68133 171.155 9.036C170.763 9.38133 170.53 9.85267 170.455 10.45H174.725ZM187.3 7.16C187.907 7.16 188.448 7.286 188.924 7.538C189.409 7.79 189.787 8.16333 190.058 8.658C190.338 9.15267 190.478 9.75 190.478 10.45V15H188.896V10.688C188.896 9.99733 188.723 9.47 188.378 9.106C188.033 8.73267 187.561 8.546 186.964 8.546C186.367 8.546 185.891 8.73267 185.536 9.106C185.191 9.47 185.018 9.99733 185.018 10.688V15H183.436V10.688C183.436 9.99733 183.263 9.47 182.918 9.106C182.573 8.73267 182.101 8.546 181.504 8.546C180.907 8.546 180.431 8.73267 180.076 9.106C179.731 9.47 179.558 9.99733 179.558 10.688V15H177.962V7.286H179.558V8.168C179.819 7.85067 180.151 7.60333 180.552 7.426C180.953 7.24867 181.383 7.16 181.84 7.16C182.456 7.16 183.007 7.29067 183.492 7.552C183.977 7.81333 184.351 8.19133 184.612 8.686C184.845 8.21933 185.209 7.85067 185.704 7.58C186.199 7.3 186.731 7.16 187.3 7.16ZM194.105 8.42C194.375 8.06533 194.744 7.76667 195.211 7.524C195.677 7.28133 196.205 7.16 196.793 7.16C197.465 7.16 198.076 7.328 198.627 7.664C199.187 7.99067 199.625 8.45267 199.943 9.05C200.26 9.64733 200.419 10.3333 200.419 11.108C200.419 11.8827 200.26 12.578 199.943 13.194C199.625 13.8007 199.187 14.2767 198.627 14.622C198.076 14.958 197.465 15.126 196.793 15.126C196.205 15.126 195.682 15.0093 195.225 14.776C194.767 14.5333 194.394 14.2347 194.105 13.88V18.668H192.509V7.286H194.105V8.42ZM198.795 11.108C198.795 10.576 198.683 10.1187 198.459 9.736C198.244 9.344 197.955 9.05 197.591 8.854C197.236 8.64867 196.853 8.546 196.443 8.546C196.041 8.546 195.659 8.64867 195.295 8.854C194.94 9.05933 194.651 9.358 194.427 9.75C194.212 10.142 194.105 10.604 194.105 11.136C194.105 11.668 194.212 12.1347 194.427 12.536C194.651 12.928 194.94 13.2267 195.295 13.432C195.659 13.6373 196.041 13.74 196.443 13.74C196.853 13.74 197.236 13.6373 197.591 13.432C197.955 13.2173 198.244 12.9093 198.459 12.508C198.683 12.1067 198.795 11.64 198.795 11.108ZM205.343 15.126C204.615 15.126 203.957 14.9627 203.369 14.636C202.781 14.3 202.319 13.8333 201.983 13.236C201.647 12.6293 201.479 11.9293 201.479 11.136C201.479 10.352 201.652 9.65667 201.997 9.05C202.342 8.44333 202.814 7.97667 203.411 7.65C204.008 7.32333 204.676 7.16 205.413 7.16C206.15 7.16 206.818 7.32333 207.415 7.65C208.012 7.97667 208.484 8.44333 208.829 9.05C209.174 9.65667 209.347 10.352 209.347 11.136C209.347 11.92 209.17 12.6153 208.815 13.222C208.46 13.8287 207.975 14.3 207.359 14.636C206.752 14.9627 206.08 15.126 205.343 15.126ZM205.343 13.74C205.754 13.74 206.136 13.642 206.491 13.446C206.855 13.25 207.149 12.956 207.373 12.564C207.597 12.172 207.709 11.696 207.709 11.136C207.709 10.576 207.602 10.1047 207.387 9.722C207.172 9.33 206.888 9.036 206.533 8.84C206.178 8.644 205.796 8.546 205.385 8.546C204.974 8.546 204.592 8.644 204.237 8.84C203.892 9.036 203.616 9.33 203.411 9.722C203.206 10.1047 203.103 10.576 203.103 11.136C203.103 11.9667 203.313 12.6107 203.733 13.068C204.162 13.516 204.699 13.74 205.343 13.74ZM216.157 8.406C216.391 8.014 216.699 7.71067 217.081 7.496C217.473 7.272 217.935 7.16 218.467 7.16V8.812H218.061C217.436 8.812 216.96 8.97067 216.633 9.288C216.316 9.60533 216.157 10.156 216.157 10.94V15H214.561V7.286H216.157V8.406ZM227.005 10.954C227.005 11.2433 226.986 11.5047 226.949 11.738H221.055C221.101 12.354 221.33 12.8487 221.741 13.222C222.151 13.5953 222.655 13.782 223.253 13.782C224.111 13.782 224.718 13.4227 225.073 12.704H226.795C226.561 13.4133 226.137 13.9967 225.521 14.454C224.914 14.902 224.158 15.126 223.253 15.126C222.515 15.126 221.853 14.9627 221.265 14.636C220.686 14.3 220.229 13.8333 219.893 13.236C219.566 12.6293 219.403 11.9293 219.403 11.136C219.403 10.3427 219.561 9.64733 219.879 9.05C220.205 8.44333 220.658 7.97667 221.237 7.65C221.825 7.32333 222.497 7.16 223.253 7.16C223.981 7.16 224.629 7.31867 225.199 7.636C225.768 7.95333 226.211 8.40133 226.529 8.98C226.846 9.54933 227.005 10.2073 227.005 10.954ZM225.339 10.45C225.329 9.862 225.119 9.39067 224.709 9.036C224.298 8.68133 223.789 8.504 223.183 8.504C222.632 8.504 222.161 8.68133 221.769 9.036C221.377 9.38133 221.143 9.85267 221.069 10.45H225.339ZM228.043 11.108C228.043 10.3333 228.202 9.64733 228.519 9.05C228.846 8.45267 229.284 7.99067 229.835 7.664C230.395 7.328 231.011 7.16 231.683 7.16C232.29 7.16 232.817 7.28133 233.265 7.524C233.722 7.75733 234.086 8.05133 234.357 8.406V7.286H235.967V15H234.357V13.852C234.086 14.216 233.718 14.5193 233.251 14.762C232.784 15.0047 232.252 15.126 231.655 15.126C230.992 15.126 230.386 14.958 229.835 14.622C229.284 14.2767 228.846 13.8007 228.519 13.194C228.202 12.578 228.043 11.8827 228.043 11.108ZM234.357 11.136C234.357 10.604 234.245 10.142 234.021 9.75C233.806 9.358 233.522 9.05933 233.167 8.854C232.812 8.64867 232.43 8.546 232.019 8.546C231.608 8.546 231.226 8.64867 230.871 8.854C230.516 9.05 230.227 9.344 230.003 9.736C229.788 10.1187 229.681 10.576 229.681 11.108C229.681 11.64 229.788 12.1067 230.003 12.508C230.227 12.9093 230.516 13.2173 230.871 13.432C231.235 13.6373 231.618 13.74 232.019 13.74C232.43 13.74 232.812 13.6373 233.167 13.432C233.522 13.2267 233.806 12.928 234.021 12.536C234.245 12.1347 234.357 11.668 234.357 11.136ZM239.659 4.64V15H238.063V4.64H239.659Z" fill="white"/>
<path fill-rule="evenodd" clip-rule="evenodd" d="M9.98951 2.00003C4.46951 2.00003 -0.000488281 6.48003 -0.000488281 12C-0.000488281 17.52 4.46951 22 9.98951 22C15.5195 22 19.9995 17.52 19.9995 12C19.9995 6.48003 15.5195 2.00003 9.98951 2.00003ZM14.2298 18.0001L9.99981 15.4501L5.76981 18.0001L6.88981 13.1901L3.15981 9.96005L8.07981 9.54005L9.99981 5.00005L11.9198 9.53005L16.8398 9.95005L13.1098 13.1801L14.2298 18.0001Z" fill="#FFB84B"/>
</svg>
