<svg width="19" height="14" viewBox="0 0 19 14" fill="none" xmlns="http://www.w3.org/2000/svg">
<path d="M6.30484 11.3356L2.64508 7.67585C2.44787 7.47865 2.18041 7.36786 1.90152 7.36786C1.62263 7.36786 1.35517 7.47865 1.15797 7.67585C0.960763 7.87305 0.849976 8.14052 0.849976 8.4194C0.849976 8.55749 0.877175 8.69423 0.93002 8.82181C0.982865 8.94939 1.06032 9.06531 1.15797 9.16296L5.56656 13.5716C5.97789 13.9829 6.64234 13.9829 7.05367 13.5716L18.2123 2.41296C18.4095 2.21576 18.5203 1.94829 18.5203 1.6694C18.5203 1.39052 18.4095 1.12305 18.2123 0.92585C18.0151 0.728647 17.7476 0.617859 17.4687 0.617859C17.1898 0.617859 16.9224 0.728647 16.7252 0.92585L6.30484 11.3356Z" fill="#539B5B"/>
</svg>
