<svg width="26" height="26" viewBox="0 0 26 26" fill="none" xmlns="http://www.w3.org/2000/svg">
<path fill-rule="evenodd" clip-rule="evenodd" d="M11.9172 4.82688C11.3908 5.48837 10.8002 6.50423 9.95276 7.96793L5.55202 15.5692C4.70158 17.0381 4.11243 18.0601 3.79978 18.8488C3.48981 19.6307 3.54345 19.9604 3.66793 20.1763C3.79241 20.3922 4.05087 20.6038 4.88288 20.7273C5.72207 20.8519 6.90168 20.8541 8.59905 20.8541H17.4005C19.0979 20.8541 20.2775 20.8519 21.1167 20.7273C21.9487 20.6038 22.2071 20.3922 22.3316 20.1763C22.4561 19.9604 22.5097 19.6307 22.1998 18.8488C21.8871 18.0601 21.298 17.0381 20.4475 15.5692L16.0468 7.96794C15.1994 6.50424 14.6088 5.48838 14.0823 4.82688C13.5606 4.17131 13.2488 4.05347 12.9998 4.05347C12.7508 4.05347 12.439 4.17131 11.9172 4.82688ZM10.6457 3.81499C11.27 3.03061 11.9996 2.42847 12.9998 2.42847C14 2.42847 14.7296 3.03061 15.3538 3.81499C15.9644 4.58221 16.6141 5.70455 17.4177 7.09252L17.4177 7.09255L17.4531 7.15376L21.8538 14.755L21.8893 14.8163C22.6959 16.2094 23.348 17.3357 23.7104 18.2499C24.0808 19.1843 24.2402 20.1194 23.7394 20.988C23.2386 21.8565 22.3495 22.1871 21.3553 22.3347C20.3825 22.4792 19.0811 22.4791 17.4713 22.4791H17.4713H17.4005H8.59905H8.52828H8.52822C6.91844 22.4791 5.61708 22.4792 4.64426 22.3347C3.65004 22.1871 2.76091 21.8565 2.26015 20.988C1.75939 20.1194 1.91875 19.1843 2.28915 18.2499C2.65159 17.3357 3.30365 16.2094 4.11024 14.8163L4.14571 14.755L8.54644 7.15375L8.58186 7.09256L8.58187 7.09254C9.38541 5.70455 10.0352 4.58221 10.6457 3.81499ZM13 8.93743C13.4488 8.93743 13.8125 9.3012 13.8125 9.74993V14.0833C13.8125 14.532 13.4488 14.8958 13 14.8958C12.5513 14.8958 12.1875 14.532 12.1875 14.0833V9.74993C12.1875 9.3012 12.5513 8.93743 13 8.93743ZM13.0005 18.4166C13.5988 18.4166 14.0838 17.9316 14.0838 17.3333C14.0838 16.735 13.5988 16.2499 13.0005 16.2499C12.4022 16.2499 11.9171 16.735 11.9171 17.3333C11.9171 17.9316 12.4022 18.4166 13.0005 18.4166Z" fill="#FF1010"/>
</svg>
