<svg width="18" height="12" viewBox="0 0 18 12" fill="none" xmlns="http://www.w3.org/2000/svg">
<path fill-rule="evenodd" clip-rule="evenodd" d="M9 -7.62939e-06C4.90909 -7.62939e-06 1.41545 2.48799 0 5.99999C1.41545 9.51199 4.90909 12 9 12C13.0909 12 16.5845 9.51199 18 5.99999C16.5845 2.48799 13.0909 -7.62939e-06 9 -7.62939e-06ZM8.99924 9.99997C6.74106 9.99997 4.90833 8.20797 4.90833 5.99997C4.90833 3.79197 6.74106 1.99997 8.99924 1.99997C11.2574 1.99997 13.0901 3.79197 13.0901 5.99997C13.0901 8.20797 11.2574 9.99997 8.99924 9.99997ZM8.99949 3.59956C7.64131 3.59956 6.54494 4.67156 6.54494 5.99956C6.54494 7.32756 7.64131 8.39956 8.99949 8.39956C10.3577 8.39956 11.454 7.32756 11.454 5.99956C11.454 4.67156 10.3577 3.59956 8.99949 3.59956Z" fill="#84818A"/>
</svg>
